<?xml version="1.0" encoding="UTF-8"?>
<svg version="1.1" xmlns="http://www.w3.org/2000/svg" width="1024" height="1024">
<path d="M0 0 C0.8559375 0.66128906 1.711875 1.32257813 2.59375 2.00390625 C53.9043653 42.72784339 87.80570038 103.59829102 95.73388672 168.66674805 C95.8217041 169.43672119 95.90952148 170.20669434 96 171 C96.0942627 171.80928955 96.18852539 172.6185791 96.28564453 173.45239258 C100.93372883 218.03325837 93.11236231 262.57739951 74 303 C73.68305176 303.67772461 73.36610352 304.35544922 73.03955078 305.05371094 C56.56041615 340.06226133 31.20349103 373.80821613 0 397 C-0.61037109 397.4650293 -1.22074219 397.93005859 -1.84960938 398.40917969 C-23.54053235 414.90050821 -47.23846013 428.31277944 -72.99755859 437.29394531 C-75.03552483 438.01252595 -77.05806219 438.76642798 -79.08203125 439.5234375 C-87.90970219 442.73858531 -96.77795374 444.95843029 -106 446.75 C-107.52826416 447.04789429 -107.52826416 447.04789429 -109.08740234 447.35180664 C-124.2049447 450.13172957 -139.15486111 451.33741214 -154.51391602 451.26074219 C-157.06485659 451.24999007 -159.61509564 451.26073542 -162.16601562 451.2734375 C-172.9132033 451.28118462 -183.36095278 450.5113799 -194 449 C-194.33 449.66 -194.66 450.32 -195 451 C-195 450.01 -195 449.02 -195 448 C-195.89912109 447.99613281 -195.89912109 447.99613281 -196.81640625 447.9921875 C-220.45117217 446.98359151 -244.83778297 437.03072886 -266 427 C-267.04051514 426.50862549 -267.04051514 426.50862549 -268.10205078 426.00732422 C-295.18106414 413.11347373 -318.61490693 395.44157358 -339.875 374.375 C-340.67945557 373.5799707 -341.48391113 372.78494141 -342.31274414 371.96582031 C-343.05258545 371.22170898 -343.79242676 370.47759766 -344.5546875 369.7109375 C-345.55218018 368.71006104 -345.55218018 368.71006104 -346.56982422 367.68896484 C-348 366 -348 366 -348 364 C-348.66 364 -349.32 364 -350 364 C-351.7159039 362.05961405 -353.30254523 360.11547279 -354.875 358.0625 C-355.3611377 357.43206787 -355.84727539 356.80163574 -356.34814453 356.15209961 C-357.91041886 354.10995176 -359.45728379 352.05695495 -361 350 C-361.73283203 349.02933594 -361.73283203 349.02933594 -362.48046875 348.0390625 C-396.43719965 302.7027301 -413.21167709 247.42953325 -412 191 C-411.98324219 189.71867188 -411.96648437 188.43734375 -411.94921875 187.1171875 C-410.62202391 136.73783231 -391.3813146 85.30164639 -360 46 C-359.00419922 44.71802734 -359.00419922 44.71802734 -357.98828125 43.41015625 C-353.8707073 38.16004723 -349.52476031 33.16989566 -345.0234375 28.24609375 C-343.42588072 26.47274404 -341.91616508 24.68316018 -340.4375 22.8125 C-337.90177957 19.88666873 -335.21810067 17.46616544 -332.2734375 14.96484375 C-329.78321515 12.81264127 -327.39999575 10.56474826 -325 8.3125 C-294.47032594 -19.37331401 -255.68946179 -37.97357941 -215.69140625 -47.125 C-212.20290058 -47.80319152 -212.20290058 -47.80319152 -210 -49 C-207.3119449 -49.37358421 -204.63422335 -49.70472148 -201.9375 -50 C-200.84791992 -50.12375 -200.84791992 -50.12375 -199.73632812 -50.25 C-198.24573463 -50.4186967 -196.7548379 -50.58473236 -195.26367188 -50.74829102 C-193.77462014 -50.91386612 -192.28628564 -51.08604786 -190.79882812 -51.26538086 C-185.08026142 -51.94354422 -179.37678624 -52.30451547 -173.625 -52.5625 C-172.32175781 -52.62727539 -172.32175781 -52.62727539 -170.9921875 -52.69335938 C-109.58819101 -55.55464028 -48.58790166 -37.97598358 0 0 Z M-206 -29 C-206.90395508 -28.81276367 -207.80791016 -28.62552734 -208.73925781 -28.43261719 C-242.90992335 -21.12385644 -275.84722354 -6.02877283 -303 16 C-303.57153809 16.4626123 -304.14307617 16.92522461 -304.73193359 17.40185547 C-315.80047375 26.43170708 -326.99418805 35.87517347 -336 47 C-336.91144285 48.09897118 -337.82290281 49.19792816 -338.734375 50.296875 C-378.19975476 98.30459987 -397.12417216 160.40510932 -391.49609375 222.34375 C-390.88044778 227.93614108 -390.005715 233.46559788 -389 239 C-388.83371094 239.93569824 -388.66742188 240.87139648 -388.49609375 241.83544922 C-383.30283097 270.19162573 -372.58226813 297.69016342 -357 322 C-356.401875 322.95003906 -355.80375 323.90007812 -355.1875 324.87890625 C-345.902753 339.23656946 -334.86988606 351.74343804 -323 364 C-322.50983398 364.51933105 -322.01966797 365.03866211 -321.51464844 365.57373047 C-320.38180569 366.75422388 -319.19588227 367.88341458 -318 369 C-317.34 369 -316.68 369 -316 369 C-316 369.66 -316 370.32 -316 371 C-276.84068659 412.64374115 -215.293644 430.01029762 -160.0625 432.22265625 C-99.17879167 433.80212821 -40.58981044 410.11059086 3.38476562 368.53613281 C3.91779297 368.02920898 4.45082031 367.52228516 5 367 C5.56654297 366.46213867 6.13308594 365.92427734 6.71679688 365.37011719 C47.7772885 326.10176857 75.79389729 268.37215836 77.2641449 211.24645996 C77.32650366 207.3097287 77.3292391 203.37460642 77.3125 199.4375 C77.31167419 198.61182526 77.31084839 197.78615051 77.30999756 196.93545532 C77.27357083 181.05397807 76.0596872 165.62189156 72.47802734 150.11645508 C72.14204276 148.62889106 71.83996047 147.13346194 71.56298828 145.63378906 C64.82032701 114.09006409 49.29636711 82.75847658 29.31054688 57.65283203 C28.1501996 56.18942833 27.01819287 54.70365095 25.890625 53.21484375 C20.51735932 46.20961515 14.30611426 40.14954867 8 34 C6.73929688 32.73349609 6.73929688 32.73349609 5.453125 31.44140625 C-10.94067687 15.12591872 -29.78786803 2.95975619 -50 -8 C-50.97066406 -8.53367187 -51.94132812 -9.06734375 -52.94140625 -9.6171875 C-67.10773596 -17.0731505 -83.15752727 -23.3421479 -99 -26 C-99.66 -25.67 -100.32 -25.34 -101 -25 C-101 -25.66 -101 -26.32 -101 -27 C-103.78935458 -27.63703663 -106.58089008 -28.25942266 -109.375 -28.875 C-110.13039063 -29.04902344 -110.88578125 -29.22304688 -111.6640625 -29.40234375 C-126.92014304 -32.72423225 -142.37331329 -33.40953794 -157.9375 -33.375 C-159.27087906 -33.37468277 -159.27087906 -33.37468277 -160.63119507 -33.37435913 C-176.05566588 -33.33796317 -190.86648695 -32.1802686 -206 -29 Z " fill="#EBD180" transform="translate(669,297)"/>
<path d="M0 0 C7.99573877 9.53271663 13.86384906 22.31327693 12.875 35 C12.10800417 39.59354645 10.28696045 42.71303955 7 46 C5.85185003 48.29629994 5.69230191 50.07698086 5.4375 52.625 C5.35371094 53.44226563 5.26992188 54.25953125 5.18359375 55.1015625 C5.12300781 55.72804688 5.06242188 56.35453125 5 57 C5.61746094 56.60167969 6.23492188 56.20335937 6.87109375 55.79296875 C20.25537089 47.42015611 34.14887712 45.15953181 49.72265625 47.578125 C59.84680477 49.96027759 69.67776771 53.46143658 79.50927734 56.82592773 C88.65255142 59.9517257 96.65176589 62.33967582 106.375 62.1875 C107.18066406 62.18685547 107.98632812 62.18621094 108.81640625 62.18554688 C113.04289358 62.25692289 113.04289358 62.25692289 117 61 C116.34 60.01 115.68 59.02 115 58 C114.43218957 53.61974813 114.46690824 51.7212418 117.125 48.125 C120.32915727 45.75670984 122.02790584 45 126 45 C128.82993441 46.22201713 130.47446153 47.33113286 132.375 49.75 C133.33008949 53.18832218 132.90421661 55.56397688 132 59 C130.38588713 60.71761323 128.72357225 62.39225181 127 64 C127.27972656 64.82870605 127.55945313 65.65741211 127.84765625 66.51123047 C136.04442846 90.8412798 143.92289268 115.26671335 151.71946716 139.72756958 C154.43908017 148.25493772 157.17534874 156.77688712 159.91796875 165.296875 C160.22559898 166.2527161 160.22559898 166.2527161 160.53944397 167.22786713 C162.35720223 172.87582013 164.17546866 178.52360903 165.9956665 184.17077637 C167.10863012 187.62399704 168.22041429 191.07759563 169.33203125 194.53125 C169.65946823 195.54580261 169.98690521 196.56035522 170.32426453 197.60565186 C171.22363497 200.40146639 172.11450469 203.19976258 173 206 C173.29498383 206.92594971 173.58996765 207.85189941 173.89389038 208.8059082 C174.30739243 210.13464966 174.30739243 210.13464966 174.72924805 211.49023438 C174.97458786 212.27281616 175.21992767 213.05539795 175.47270203 213.86169434 C176.69084802 218.80153595 175.37029313 222.7179357 173.0625 227.0625 C168.48462502 233.85675249 161.442067 236.91328427 153.67590332 238.57788086 C148.63016922 239.37383673 143.57423845 239.30492176 138.4765625 239.30078125 C137.29460297 239.30506638 136.11264343 239.3093515 134.89486694 239.31376648 C132.40550372 239.3194854 129.9161238 239.32002812 127.42675781 239.31567383 C123.64358667 239.31251552 119.86119962 239.33599943 116.078125 239.36132812 C113.64843848 239.36360171 111.21874987 239.36430434 108.7890625 239.36328125 C107.67101227 239.372491 106.55296204 239.38170074 105.40103149 239.39118958 C94.62712836 239.3285453 84.95849403 237.73325363 77 230 C74.12140558 226.38330445 72.37195508 223.60765671 72 219 C72.64955 215.83619701 73.67470251 212.81376243 74.69921875 209.75390625 C75.00126724 208.82015671 75.30331573 207.88640717 75.61451721 206.92436218 C76.62795236 203.80008051 77.65787755 200.68148083 78.6875 197.5625 C79.40907315 195.34706872 80.12942385 193.13123897 80.84863281 190.91503906 C82.39979685 186.1402297 83.95725011 181.36753447 85.51904297 176.59619141 C88.06419977 168.8137129 90.58436532 161.02328876 93.09765625 153.23046875 C93.31018917 152.57148401 93.52272209 151.91249928 93.7416954 151.2335453 C94.60133337 148.56781179 95.46083165 145.90203333 96.32003975 143.23616123 C97.60377236 139.25324192 98.88898728 135.27080534 100.17560005 131.2888155 C105.74265825 114.05891716 111.259976 96.81431996 116.66308594 79.53222656 C116.8877504 78.81542725 117.11241486 78.09862793 117.34388733 77.36010742 C117.93152444 75.48435637 118.5170077 73.60793092 119.10229492 71.73144531 C120 69 120 69 121 67 C120.29617188 67.22816406 119.59234375 67.45632813 118.8671875 67.69140625 C117.87976563 67.97886719 116.89234375 68.26632812 115.875 68.5625 C114.92367188 68.85253906 113.97234375 69.14257812 112.9921875 69.44140625 C100.84916381 71.77066049 88.0833092 67.57759254 76.4375 64.5 C74.01575238 63.87264928 71.59315105 63.2486837 69.17042542 62.62512207 C67.67821762 62.2397142 66.18674253 61.85145399 64.69615173 61.45983887 C50.61796567 57.77164747 34.71828512 56.7645936 21.625 64.25 C16.34921488 67.89908471 11.73062427 72.70682082 10 79 C8.99465887 84.70056582 8.85779658 90.2079021 8.87060547 95.97314453 C8.86885315 96.95170914 8.86710083 97.93027374 8.86529541 98.93849182 C8.86090143 102.16995021 8.86381132 105.40135355 8.8671875 108.6328125 C8.86651257 110.90746064 8.86554098 113.1821087 8.86428833 115.45675659 C8.86281368 120.23647749 8.86495409 125.01617971 8.86962891 129.79589844 C8.87525563 135.83488098 8.87197377 141.8738189 8.86622238 147.91279984 C8.81395559 178.17405621 8.81395559 178.17405621 9.3203125 208.4296875 C9.34229706 209.54763702 9.36428162 210.66558655 9.38693237 211.81741333 C9.58931757 217.65352485 10.41568352 221.76960789 13 227 C12.890625 229.546875 12.890625 229.546875 12.25 231.75 C12.04890625 232.48734375 11.8478125 233.2246875 11.640625 233.984375 C11.10781264 235.66078464 10.55625878 237.33122367 10 239 C9.89489867 241.31374806 9.85129908 243.63043264 9.83886719 245.9465332 C9.83390228 246.64934418 9.82893738 247.35215515 9.82382202 248.07626343 C9.80921876 250.40111268 9.80240113 252.72589367 9.796875 255.05078125 C9.7911216 256.66879783 9.78536389 258.28681439 9.77960205 259.90483093 C9.76909699 263.29845497 9.76325123 266.69205535 9.75976562 270.08569336 C9.75428495 274.42679781 9.73026412 278.76758796 9.70179367 283.10859394 C9.68313652 286.45182701 9.67796004 289.79498488 9.67642975 293.13826561 C9.67340913 294.73819889 9.66540055 296.33813103 9.65224457 297.93801308 C9.63512083 300.18067702 9.63707943 302.42257976 9.64355469 304.6652832 C9.63808624 306.57698051 9.63808624 306.57698051 9.63250732 308.52729797 C10.15535027 313.46801619 11.70917375 316.75992419 15.28515625 320.1953125 C18.25075032 322.16668583 21.14201605 323.52632796 24.4375 324.875 C25.03788086 325.12693115 25.63826172 325.3788623 26.25683594 325.63842773 C29.47316046 326.98552469 32.70737851 328.27863441 35.95703125 329.54296875 C36.59261963 329.79771973 37.22820801 330.0524707 37.88305664 330.31494141 C39.66141203 331.02702774 41.44772959 331.71913308 43.234375 332.41015625 C46 334 46 334 47.390625 336.68359375 C47.59171875 337.44800781 47.7928125 338.21242188 48 339 C41.20725451 347.43237371 30.23212981 348.67328736 20.02182007 349.81674194 C14.3175572 350.33377714 8.59251697 350.33251463 2.86914062 350.31567383 C0.63361803 350.31251219 -1.60057673 350.33609334 -3.8359375 350.36132812 C-18.12904619 350.42477678 -32.139213 348.74190045 -45 342 C-47 340 -47 340 -47.625 337.6875 C-46.89643268 334.55466054 -46.45011772 334.24425709 -43.875 332.5 C-38.98440829 329.72026759 -33.71599719 328.06827901 -28.4140625 326.24609375 C-21.32984189 323.66043428 -14.95786536 320.67889779 -11 314 C-9.40870744 305.42609261 -9.83662829 296.41938174 -9.83203125 287.734375 C-9.82880913 286.2871294 -9.82544438 284.83988411 -9.82194519 283.39263916 C-9.81600213 280.38056685 -9.8141006 277.36852306 -9.81469727 274.35644531 C-9.81479936 270.51121487 -9.80107715 266.6661671 -9.78392506 262.82098007 C-9.77277831 259.84058806 -9.77077877 256.86024013 -9.77130699 253.87982941 C-9.77013362 252.46215427 -9.76574824 251.04447774 -9.75797462 249.62682343 C-9.74810768 247.64414379 -9.75233422 245.66140944 -9.75708008 243.67871094 C-9.75565506 242.55495056 -9.75423004 241.43119019 -9.75276184 240.27337646 C-10.02713168 236.64078283 -10.97523458 233.48649664 -12 230 C-11.73155248 226.30884664 -11.03168816 223.10579092 -9.97029114 219.56231689 C-8.55662956 213.90233058 -8.71293511 208.24274974 -8.7253418 202.44042969 C-8.72023087 201.20032639 -8.71511993 199.96022308 -8.70985413 198.68254089 C-8.69837926 195.30000409 -8.69587777 191.91771329 -8.69841743 188.53517437 C-8.69949242 185.70013553 -8.69459007 182.8651189 -8.689812 180.03008485 C-8.67874008 173.33367876 -8.67826565 166.63732877 -8.68432617 159.94091797 C-8.69035782 153.0608429 -8.67807032 146.18097276 -8.6567561 139.30093265 C-8.63906684 133.37025878 -8.63315042 127.4396497 -8.63639385 121.50895047 C-8.638196 117.97741445 -8.63567897 114.44602447 -8.62167931 110.91451263 C-8.60662094 106.96864476 -8.61613479 103.02303204 -8.62768555 99.07714844 C-8.62004181 97.92661484 -8.61239807 96.77608124 -8.60452271 95.59068298 C-8.66970278 85.45857402 -9.49561715 75.2115942 -16.9140625 67.68359375 C-27.53295577 59.11291397 -40.83282602 57.69769546 -54 59 C-63.18043471 60.46627196 -72.18183935 62.93453921 -81.1328125 65.41015625 C-95.06502212 69.26019098 -106.63059815 70.63885926 -121 68 C-120.67314209 68.9701001 -120.34628418 69.9402002 -120.00952148 70.93969727 C-109.09568149 103.36221711 -109.09568149 103.36221711 -105.375 115.8125 C-102.92887405 123.99084347 -100.37824693 132.12827264 -97.75 140.25 C-97.3569165 141.47050049 -96.96383301 142.69100098 -96.55883789 143.94848633 C-94.08301436 151.62471623 -91.57725378 159.29059646 -89.04719734 166.94913864 C-87.29048353 172.26894687 -85.54497782 177.59237232 -83.80520439 182.91774368 C-82.70291468 186.28971761 -81.59502476 189.65963562 -80.47424316 193.0255127 C-79.20243827 196.84519158 -77.95411958 200.67217984 -76.70703125 204.5 C-76.31798111 205.65610779 -75.92893097 206.81221558 -75.52809143 208.00335693 C-73.36966474 214.70219136 -71.8482911 219.6965822 -75.12890625 226.2578125 C-80.76714887 233.60135466 -86.81035632 237.40740585 -96 239 C-100.2156544 239.29379109 -104.41980147 239.30413199 -108.64453125 239.30078125 C-109.85010178 239.30506638 -111.0556723 239.3093515 -112.29777527 239.31376648 C-114.84019342 239.31949133 -117.38262795 239.3200237 -119.92504883 239.31567383 C-123.78951344 239.31251877 -127.65320824 239.33598073 -131.51757812 239.36132812 C-133.99739488 239.36360196 -136.47721367 239.36430422 -138.95703125 239.36328125 C-140.10009232 239.372491 -141.24315338 239.38170074 -142.42085266 239.39118958 C-152.50920618 239.33377735 -163.9259273 238.0092826 -171.46484375 230.55078125 C-175.04779749 226.4277881 -177.04231804 223.59357927 -176.89672852 218.11108398 C-175.98014482 211.59086161 -173.75025469 205.43842833 -171.65234375 199.22265625 C-171.20332842 197.87003946 -170.75517338 196.51713683 -170.30781555 195.16397095 C-169.35543116 192.28826385 -168.39783755 189.41436948 -167.43591309 186.5418396 C-165.92261856 182.0221371 -164.42123759 177.49854098 -162.92285156 172.97387695 C-162.67267462 172.21842055 -162.42249767 171.46296415 -162.16473961 170.68461514 C-161.65869671 169.15632524 -161.15271209 167.62801605 -160.64678574 166.09968758 C-159.88550394 163.80101941 -159.12313966 161.50271237 -158.36062622 159.20445251 C-153.55477567 144.70920087 -148.89504155 130.1689933 -144.27416992 115.61373901 C-141.17421636 105.85186222 -138.06609445 96.09728427 -134.76171875 86.40234375 C-134.51565887 85.67808701 -134.269599 84.95383026 -134.01608276 84.20762634 C-132.90938946 80.95533052 -131.79103889 77.70849775 -130.65136719 74.4675293 C-130.09497559 72.84778198 -130.09497559 72.84778198 -129.52734375 71.1953125 C-129.20499756 70.27766113 -128.88265137 69.36000977 -128.55053711 68.41455078 C-127.95681309 65.81059045 -128.04197253 64.46989867 -129 62 C-130.45833358 60.37485532 -130.45833358 60.37485532 -132 59 C-133.44430855 56.11138291 -133.37688506 54.20352299 -133 51 C-130.71702736 48.06474946 -128.96038352 46.38415341 -125.5 45 C-122.11779617 45 -120.64177356 45.91438929 -118 48 C-115.82912855 50.74977051 -114.93582027 52.10148384 -115.1875 55.625 C-116 58 -116 58 -118 61 C-102.06771333 64.79210248 -88.7906223 60.20850786 -73.93359375 54.78125 C-69.34587868 53.1061274 -64.72538902 51.5764278 -60.0625 50.125 C-58.19271484 49.54105469 -58.19271484 49.54105469 -56.28515625 48.9453125 C-40.96586162 44.53714448 -25.86942081 46.24876991 -11.84765625 53.66796875 C-9.51134124 55.04747593 -7.23809701 56.46756181 -5 58 C-5 57.30132812 -5 56.60265625 -5 55.8828125 C-5 52.58854167 -5 49.29427083 -5 46 C-5.94875 45.401875 -6.8975 44.80375 -7.875 44.1875 C-11.32014 41.775902 -11.863189 40.91753988 -13 37 C-13.51662132 24.01558419 -8.70423118 12.86085451 -2 2 C-1.34 1.34 -0.68 0.68 0 0 Z M-128 80 C-130.43930312 87.60358912 -132.87636489 95.20789533 -135.3125 102.8125 C-135.67758667 103.95189026 -136.04267334 105.09128052 -136.41882324 106.26519775 C-140.69019067 119.5993232 -144.93715368 132.94001414 -149.10501099 146.30685425 C-153.74918649 161.19832004 -158.60497949 176.01269736 -163.57128906 190.79977417 C-164.03425078 192.17837709 -164.4965067 193.55721726 -164.95800781 194.93630981 C-166.11858239 198.40000408 -167.29522895 201.85703003 -168.49707031 205.30664062 C-168.85425644 206.34422516 -168.85425644 206.34422516 -169.21865845 207.402771 C-169.87472399 209.30765573 -170.53796517 211.21006474 -171.20166016 213.11230469 C-172.32261642 215.91258331 -172.32261642 215.91258331 -171 218 C-156.48 217.67 -141.96 217.34 -127 217 C-127 171.79 -127 126.58 -127 80 C-127.33 80 -127.66 80 -128 80 Z M-123 80 C-122.67 125.21 -122.34 170.42 -122 217 C-107.81 217 -93.62 217 -79 217 C-80.63959702 209.54337869 -80.63959702 209.54337869 -82.75 202.30859375 C-83.10191406 201.22787598 -83.45382812 200.1471582 -83.81640625 199.03369141 C-84.20699219 197.84694824 -84.59757812 196.66020508 -85 195.4375 C-85.42634826 194.12957922 -85.85210357 192.82146506 -86.27734375 191.51318359 C-86.99861987 189.29424174 -87.72020894 187.07540602 -88.44311523 184.85699463 C-92.32154638 172.95478503 -96.16257039 161.04048092 -100 149.125 C-100.39188507 147.90884003 -100.78377014 146.69268005 -101.18753052 145.43966675 C-106.30888205 129.53474073 -111.35519119 113.6133237 -116.09570312 97.59033203 C-117.86505411 91.63062808 -119.71660932 85.78363532 -122 80 C-122.33 80 -122.66 80 -123 80 Z M127 81 C127 125.88 127 170.76 127 217 C141.52 217 156.04 217 171 217 C169.081875 210.956875 167.16375 204.91375 165.1875 198.6875 C161.73259357 187.79980032 158.28026096 176.91139091 154.86328125 166.01171875 C154.61853561 165.23126694 154.37378998 164.45081512 154.12162781 163.64671326 C152.97646746 159.99385613 151.83302528 156.34047341 150.69213867 152.6862793 C148.22384178 144.79670488 145.66787646 136.94357676 143.015625 129.11376953 C142.24128729 126.73975434 141.59333933 124.41955627 141 122 C140.37083137 119.97645764 139.72717927 117.95739717 139.07421875 115.94140625 C138.68943359 114.74966797 138.30464844 113.55792969 137.90820312 112.33007812 C137.50537109 111.08677734 137.10253906 109.84347656 136.6875 108.5625 C133.72002474 99.39608137 130.80723466 90.21687804 128 81 C127.67 81 127.34 81 127 81 Z M121 82 C120.64099609 83.12712402 120.28199219 84.25424805 119.91210938 85.41552734 C118.11042804 91.06943717 116.30545404 96.72229394 114.5 102.375 C114.15885162 103.44357239 113.81770325 104.51214478 113.46621704 105.61309814 C108.85655291 120.04455979 104.20770508 134.4626634 99.51585007 148.86759567 C98.69994758 151.37276218 97.88453048 153.8780862 97.06924438 156.38345337 C94.64212122 163.84103577 92.21339027 171.29806732 89.77557659 178.75216293 C88.75035489 181.88977682 87.72850958 185.0284835 86.70743752 188.16744995 C86.23132457 189.62858846 85.753777 191.08926046 85.27463341 192.54940796 C84.60919313 194.5777739 83.94897437 196.60777575 83.28979492 198.63818359 C82.91835861 199.77532806 82.5469223 200.91247253 82.16423035 202.08407593 C80.60143945 207.34057048 79.33003871 212.67984517 78 218 C92.52 217.67 107.04 217.34 122 217 C122 172.45 122 127.9 122 82 C121.67 82 121.34 82 121 82 Z " fill="#ECD180" transform="translate(512,321)"/>
<path d="M0 0 C10.373709 6.53874743 16.96165908 16.10542142 19.6875 28 C20.57857439 36.55431419 19.33106796 44.53821082 18 53 C19.175625 52.505 20.35125 52.01 21.5625 51.5 C26.66602342 49.60980614 30.75943645 49.25314548 36 51 C40.05112304 53.70074869 43.16238575 57.04580973 46 61 C46 61.66 46 62.32 46 63 C45.33613281 63.10957031 44.67226563 63.21914062 43.98828125 63.33203125 C36.99566988 64.4756876 36.99566988 64.4756876 31 68 C27.58920119 73.0158806 25.73210418 78.21319739 24 84 C25.60416667 84.14583333 27.20833333 84.29166667 28.8125 84.4375 C29.80507813 84.52773437 30.79765625 84.61796875 31.8203125 84.7109375 C32.86960937 84.80632812 33.91890625 84.90171875 35 85 C37.0625 85.1875 39.125 85.375 41.1875 85.5625 C42.10917969 85.64628906 43.03085937 85.73007813 43.98046875 85.81640625 C44.64691406 85.87699219 45.31335938 85.93757813 46 86 C46 86.66 46 87.32 46 88 C47.27101563 88.11214844 48.54203125 88.22429687 49.8515625 88.33984375 C55.16713247 88.93011562 60.21488177 90.18980089 65.375 91.5625 C67.13197374 92.02533125 68.88975606 92.4851069 70.6484375 92.94140625 C71.41333496 93.14451416 72.17823242 93.34762207 72.96630859 93.55688477 C75.14163681 94.10644612 75.14163681 94.10644612 78 94 C78 94.66 78 95.32 78 96 C78.66386719 96.12117188 79.32773437 96.24234375 80.01171875 96.3671875 C80.89472656 96.53476563 81.77773438 96.70234375 82.6875 96.875 C83.55761719 97.03742188 84.42773438 97.19984375 85.32421875 97.3671875 C88.02452671 98.00580048 90.45316762 98.90784485 93 100 C91.23693421 89.50760847 88.55653698 80.49316187 83.9765625 70.84375 C81.94338059 66.44163138 81.94338059 66.44163138 82.3125 63.5625 C82.6528125 62.7890625 82.6528125 62.7890625 83 62 C83 62.66 83 63.32 83 64 C83.64066406 64.14695312 84.28132812 64.29390625 84.94140625 64.4453125 C94.04846916 66.80690557 99.2240033 70.97632555 104 79 C104.63615234 77.91332031 104.63615234 77.91332031 105.28515625 76.8046875 C111.52561951 66.51820961 117.12606065 60.95428156 129 58 C134.3022928 57.07523993 139.64433416 56.51070339 145 56 C143.41113681 60.57824741 140.99323459 64.32716764 138.3359375 68.3359375 C137.87119019 69.04410614 137.40644287 69.75227478 136.9276123 70.48190308 C135.41501488 72.78290002 133.89540709 75.07915727 132.375 77.375 C131.33086592 78.95799066 130.28675799 80.54099857 129.24267578 82.12402344 C113.70876146 105.627684 113.70876146 105.627684 105.47949219 116.83007812 C103.95808105 118.9264287 103.95808105 118.9264287 103.02832031 121.15429688 C101.886873 123.4837337 101.14127693 124.50590254 99 126 C95.85179138 126.29766846 95.85179138 126.29766846 91.96655273 126.20800781 C91.26105821 126.19568619 90.55556368 126.18336456 89.82869053 126.17066956 C87.55193307 126.12754356 85.27625548 126.06404291 83 126 C81.52647573 125.96903636 80.05292326 125.93938607 78.5793457 125.91107178 C74.70281264 125.83242035 70.82703424 125.73429381 66.95112419 125.62960815 C64.38759476 125.56041494 61.82400675 125.4939009 59.26039124 125.42797852 C53.81936647 125.28760725 48.37842931 125.14401715 42.9375 125 C36.61661759 124.83280978 30.29570359 124.66702332 23.97470284 124.50436401 C21.4785277 124.43948027 18.98242263 124.37227617 16.48631287 124.30493164 C2.38355656 123.93364455 -11.68058193 123.92038011 -25.78372955 124.37039185 C-27.96600463 124.43990097 -30.14835708 124.50630539 -32.33074951 124.57202148 C-37.74857629 124.73569302 -43.16626553 124.90371142 -48.58392334 125.07287598 C-50.90099273 125.14520652 -53.21807178 125.21721688 -55.53515625 125.2890625 C-56.29065073 125.31257782 -57.04614521 125.33609314 -57.82453346 125.36032104 C-63.6439322 125.53927798 -69.46382666 125.68930216 -75.28423119 125.83132935 C-79.2494052 125.93404442 -83.20316313 126.11015406 -87.16259766 126.34375 C-98.39594007 126.9087937 -98.39594007 126.9087937 -102.40625 124.63671875 C-104.37098719 122.54648072 -105.56350441 120.54896113 -106.875 118 C-107.97658262 116.17760989 -109.07954924 114.35605594 -110.18359375 112.53515625 C-110.77253418 111.5105127 -111.36147461 110.48586914 -111.96826172 109.43017578 C-114.2886563 105.51266269 -116.7625868 101.72279189 -119.28515625 97.93359375 C-119.75014526 97.2345694 -120.21513428 96.53554504 -120.69421387 95.81533813 C-121.64015284 94.3941693 -122.58642221 92.97322033 -123.53302002 91.55249023 C-125.77872823 88.1707041 -127.99888602 84.77242529 -130.21484375 81.37109375 C-130.62866806 80.73600388 -131.04249237 80.100914 -131.46885681 79.44657898 C-134.53930771 74.72577753 -137.57401423 69.98295457 -140.58447266 65.22363281 C-142.34808558 62.45319706 -144.16140931 59.72111422 -146 57 C-138.71456378 54.57152126 -127.23256593 58.0607891 -120.375 61.1875 C-113.13078888 65.29008895 -108.76918729 71.76316041 -105 79 C-104.48953125 78.11248047 -104.48953125 78.11248047 -103.96875 77.20703125 C-99.61361652 70.10677375 -95.03908296 66.05862346 -87 63.6875 C-86.01 63.460625 -85.02 63.23375 -84 63 C-84.81684601 68.56338361 -87.14148246 73.55210216 -89.296875 78.703125 C-91.96158275 85.30795617 -93.53354265 92.04008238 -95 99 C-93.61385498 98.58488159 -93.61385498 98.58488159 -92.19970703 98.16137695 C-70.66829686 91.73990074 -49.31734883 86.02343972 -27 83 C-28.24665689 75.8187369 -29.85655299 70.86540121 -35.7265625 66.3046875 C-39.3125815 64.24673158 -42.92070239 63.46269811 -47 63 C-45.23833395 57.39469892 -42.04002033 54.28609977 -37.125 51.1875 C-31.02810118 48.87067845 -25.96373589 50.05265767 -20 52 C-19.67 51.67 -19.34 51.34 -19 51 C-19.2903616 49.07635441 -19.63430503 47.16075624 -20 45.25 C-22.07099872 32.29916555 -20.53606284 21.00205963 -12.8125 10.25 C-9.18484473 5.81006539 -4.93407017 2.85303377 0 0 Z " fill="#EAD180" transform="translate(513,114)"/>
<path d="M0 0 C3.45590667 1.03716923 6.13763063 1.62573242 9.78417969 1.62573242 C9.78417969 2.28573242 9.78417969 2.94573242 9.78417969 3.62573242 C10.34621094 3.73788086 10.90824219 3.8500293 11.48730469 3.96557617 C61.62713521 15.731518 107.05111534 57.52514773 133.50561523 100.04858398 C164.33283244 150.7625813 174.73685702 211.75811735 160.78417969 269.62573242 C160.58872559 270.44686523 160.39327148 271.26799805 160.19189453 272.11401367 C149.95389799 313.94423942 126.9741019 350.43581021 96.78417969 380.62573242 C96.13320313 381.3347168 95.48222656 382.04370117 94.81152344 382.77416992 C60.97071605 418.8288619 7.45147033 440.17322349 -41.21582031 443.62573242 C-42.01165527 443.68744629 -42.80749023 443.74916016 -43.62744141 443.81274414 C-72.23243743 445.96740618 -100.75000602 442.99577858 -128.21582031 434.62573242 C-129.05419434 434.37452637 -129.89256836 434.12332031 -130.75634766 433.86450195 C-160.85183026 424.73126964 -187.65164603 409.375297 -211.21582031 388.62573242 C-211.91707031 388.0353418 -212.61832031 387.44495117 -213.34082031 386.83666992 C-258.24602658 348.85434962 -284.77893323 292.42288895 -289.68457031 234.34057617 C-293.75400493 177.25312096 -275.46968369 117.31957218 -238.21582031 73.62573242 C-235.87230383 70.95603815 -233.50764447 68.31508712 -231.09082031 65.71166992 C-229.17629744 63.65965315 -229.17629744 63.65965315 -227.59082031 61.35229492 C-227.13707031 60.7825293 -226.68332031 60.21276367 -226.21582031 59.62573242 C-225.55582031 59.62573242 -224.89582031 59.62573242 -224.21582031 59.62573242 C-223.96832031 59.00698242 -223.72082031 58.38823242 -223.46582031 57.75073242 C-222.00953392 55.27504555 -220.83769525 54.6744824 -218.21582031 53.62573242 C-218.21582031 52.96573242 -218.21582031 52.30573242 -218.21582031 51.62573242 C-214.74593397 48.39922488 -210.9405739 45.55208789 -207.21582031 42.62573242 C-206.68134277 42.20130859 -206.14686523 41.77688477 -205.59619141 41.33959961 C-170.79917736 13.73291878 -127.60560917 -3.86861246 -83.21582031 -7.37426758 C-81.94867188 -7.48383789 -80.68152344 -7.5934082 -79.37597656 -7.70629883 C-52.93179003 -9.75306249 -25.46636109 -7.67647597 0 0 Z M-154.21582031 19.62573242 C-154.94027344 19.93591309 -155.66472656 20.24609375 -156.41113281 20.56567383 C-171.71729176 27.1438435 -186.51190608 35.79116293 -199.21582031 46.62573242 C-198.88582031 47.61573242 -198.55582031 48.60573242 -198.21582031 49.62573242 C-198.7559375 49.35760742 -199.29605469 49.08948242 -199.85253906 48.81323242 C-202.45722307 48.34657646 -202.45722307 48.34657646 -204.92285156 50.62573242 C-205.97106552 51.61203661 -207.00529953 52.61332097 -208.02832031 53.62573242 C-208.87003784 54.43409546 -208.87003784 54.43409546 -209.72875977 55.25878906 C-210.93775899 56.42590955 -212.14059124 57.59944463 -213.33789062 58.77856445 C-215.22801419 60.63772656 -217.13843956 62.47407286 -219.05175781 64.30932617 C-226.89828021 71.90940258 -233.9332212 79.67794722 -240.21582031 88.62573242 C-240.62106934 89.19727051 -241.02631836 89.76880859 -241.44384766 90.35766602 C-256.44573971 111.6761442 -268.00365948 135.21697625 -274.21582031 160.62573242 C-274.51359375 161.84260742 -274.81136719 163.05948242 -275.11816406 164.31323242 C-282.4292165 194.60741499 -285.22026704 228.96475806 -278.21582031 259.62573242 C-278.01714355 260.54741211 -277.8184668 261.4690918 -277.61376953 262.41870117 C-271.58283208 290.06614478 -261.07131616 316.7081048 -244.21582031 339.62573242 C-243.44496094 340.68663086 -242.67410156 341.7475293 -241.87988281 342.84057617 C-228.35986759 360.97668665 -228.35986759 360.97668665 -212.32128906 376.82885742 C-210.03427795 378.78066653 -207.85247351 380.82561275 -205.65332031 382.87573242 C-175.72990503 409.81598513 -136.74188111 427.07218866 -97.21582031 433.62573242 C-95.9821875 433.83198242 -94.74855469 434.03823242 -93.47753906 434.25073242 C-82.76232538 435.81599403 -72.0209754 435.80944621 -61.21582031 435.81323242 C-60.44168793 435.81422943 -59.66755554 435.81522644 -58.8699646 435.81625366 C-56.65181801 435.81593018 -54.43392432 435.80691069 -52.21582031 435.79370117 C-50.26675781 435.78246216 -50.26675781 435.78246216 -48.27832031 435.77099609 C-45.30060468 435.83659694 -45.30060468 435.83659694 -43.21582031 434.62573242 C-41.09277331 434.64687831 -38.96972636 434.66802935 -36.84667969 434.68920898 C9.85843272 433.56232246 57.12003675 407.19913834 90.53417969 376.06323242 C92.81754554 373.82521635 92.81754554 373.82521635 93.84667969 371.43823242 C94.78417969 369.62573242 94.78417969 369.62573242 96.58496094 368.81323242 C99.44401145 367.26944671 100.89117964 365.35621034 102.90917969 362.81323242 C103.69679688 361.82194336 104.48441406 360.8306543 105.29589844 359.80932617 C105.70501465 359.28580566 106.11413086 358.76228516 106.53564453 358.22290039 C107.7622356 356.65380403 109.00162139 355.09473657 110.24121094 353.53588867 C146.47767636 307.63875292 163.9297177 251.0064057 157.65917969 192.68823242 C156.15352306 180.04052818 153.30883383 167.85122041 149.78417969 155.62573242 C149.58066895 154.90885254 149.3771582 154.19197266 149.16748047 153.45336914 C139.70039025 120.77926879 120.93084928 91.69680446 97.49072266 67.3996582 C95.92012882 65.7670495 94.36843184 64.11853966 92.81933594 62.46557617 C55.98368941 23.7430257 0.75152335 1.69917793 -52.15722656 0.30932617 C-87.7909802 -0.42343362 -121.44978671 5.18466804 -154.21582031 19.62573242 Z " fill="#ECD280" transform="translate(573.2158203125,278.374267578125)"/>
<path d="M0 0 C0.66 0 1.32 0 2 0 C3.38156931 4.65441311 4.71050449 9.31942659 6 14 C6.23460937 14.84433594 6.46921875 15.68867187 6.7109375 16.55859375 C9.1306928 26.6759764 9.92713148 39.31195826 5.33203125 48.859375 C1.55025928 54.93682673 -3.39355832 59.62424064 -9 64 C-7.824375 63.5875 -6.64875 63.175 -5.4375 62.75 C-3.62563 62.16471278 -1.81304577 61.58163482 0 61 C1.54880859 60.46052734 1.54880859 60.46052734 3.12890625 59.91015625 C29.89084224 51.5078054 55.63195888 60.12174241 81 69 C80 71 80 71 77.69140625 71.9296875 C48.72796119 80.6801915 20.03225065 85.04817436 -7.87890625 70.87890625 C-16.04336575 65.9638812 -21.61080945 59.28244368 -24.4375 50.0625 C-26.59616587 38.38713514 -22.0485488 28.71729959 -16 19 C-13.27446721 15.09793812 -10.16350868 11.5500276 -7 8 C-6.29359375 7.07574219 -5.5871875 6.15148437 -4.859375 5.19921875 C-4.24578125 4.47347656 -3.6321875 3.74773438 -3 3 C-2.34 3 -1.68 3 -1 3 C-0.67 2.01 -0.34 1.02 0 0 Z " fill="#EAD080" transform="translate(663,725)"/>
<path d="M0 0 C2.64360343 2.33943409 3.92414227 4.61386915 5.33984375 7.83203125 C5.76152832 8.78835449 6.18321289 9.74467773 6.61767578 10.72998047 C15.46287101 31.38840351 20.95590972 48.12670118 12.99609375 69.90234375 C11.64338444 72.86972767 11.64338444 72.86972767 13 75 C13.4125 74.50371094 13.825 74.00742187 14.25 73.49609375 C27.27726426 58.17161102 42.16006298 49.94812285 62.3203125 48.26953125 C69.54397483 47.79008464 76.76606993 47.83517628 84 48 C82.63186456 51.05583843 81.07216684 53.19395829 78.7265625 55.57421875 C78.07300781 56.23744141 77.41945313 56.90066406 76.74609375 57.58398438 C61.88673489 72.32019938 45.11171364 87.07313687 23 87 C13.78934364 86.0150767 6.94344041 82.85844814 1.09765625 75.65625 C-9.60257663 60.27325136 -9.85016151 42.51531827 -6.7121582 24.66723633 C-2.44007418 2.44007418 -2.44007418 2.44007418 0 0 Z M10 76 C11 78 11 78 11 78 Z " fill="#EBD180" transform="translate(776,591)"/>
<path d="M0 0 C0.66 0 1.32 0 2 0 C3.5078125 1.6796875 3.5078125 1.6796875 5.125 3.875 C5.66382813 4.59429688 6.20265625 5.31359375 6.7578125 6.0546875 C8 8 8 8 8 10 C8.66 10 9.32 10 10 10 C11.71050754 12.21609118 13.27612207 14.41660669 14.8125 16.75 C15.48526978 17.76912476 15.48526978 17.76912476 16.17163086 18.80883789 C22.41177851 28.49268556 27.27133175 38.28262461 25.3125 50 C23.3224671 58.65000967 19.23021985 65.99825309 11.90625 71.1953125 C-14.02606895 85.88632805 -39.98188368 83.47605166 -67.79589844 75.93041992 C-71.20679373 74.98472104 -74.60479326 74.00051986 -78 73 C-77 70 -77 70 -75.33618164 69.08032227 C-74.61809326 68.82822998 -73.90000488 68.5761377 -73.16015625 68.31640625 C-72.35416992 68.03031494 -71.54818359 67.74422363 -70.71777344 67.44946289 C-69.8415332 67.15676514 -68.96529297 66.86406738 -68.0625 66.5625 C-66.70366699 66.10508423 -66.70366699 66.10508423 -65.31738281 65.63842773 C-43.22602569 58.37680974 -21.52805314 55.74211683 1 63 C2.99972598 63.58427202 4.99968826 64.16773655 7 64.75 C8.33457717 65.16266531 9.66850189 65.57750541 11 66 C10.175 65.525625 9.35 65.05125 8.5 64.5625 C0.3463686 59.0365792 -4.89382484 51.60942416 -7 42 C-8.91034802 28.42856931 -4.2685448 12.8056344 0 0 Z " fill="#EAD080" transform="translate(359,723)"/>
<path d="M0 0 C0.65104151 2.35283375 1.29592122 4.70708449 1.9375 7.0625 C2.11990234 7.71927734 2.30230469 8.37605469 2.49023438 9.05273438 C5.65500867 20.7336286 7.71609229 35.65340927 2.26171875 46.92578125 C-1.49022278 53.09383373 -6.03423817 57.02282545 -12 61 C-12.33 61.33 -12.66 61.66 -13 62 C-12.1028125 61.79503906 -11.205625 61.59007812 -10.28125 61.37890625 C21.82119531 54.44769647 48.70226766 63.60628426 79 74 C79 74.66 79 75.32 79 76 C73.55049741 78.19204711 68.41536755 79.68983148 62.625 80.625 C61.87822998 80.74979736 61.13145996 80.87459473 60.36206055 81.00317383 C34.74143062 85.19493252 10.44793049 82.72349507 -12 69 C-20.918463 62.3616982 -26.96751724 55.103067 -29 44 C-29.45009188 27.98202428 -17.60837146 16.40186167 -7.3828125 5.49609375 C-6.59648438 4.67238281 -5.81015625 3.84867188 -5 3 C-4.16082031 2.08927734 -4.16082031 2.08927734 -3.3046875 1.16015625 C-2 0 -2 0 0 0 Z " fill="#EAD07F" transform="translate(625,744)"/>
<path d="M0 0 C2.38470529 2.38470529 2.54280461 3.65372553 3.21875 6.91796875 C3.42798096 7.91812012 3.63721191 8.91827148 3.8527832 9.94873047 C4.06636475 11.01752441 4.27994629 12.08631836 4.5 13.1875 C4.83100708 14.81776123 4.83100708 14.81776123 5.16870117 16.48095703 C9.41281529 37.77265804 11.5547605 55.53489001 0 75 C-4.7915823 81.65389769 -11.43332983 85.31926929 -19.48828125 86.78125 C-36.24917472 88.24098567 -50.18469802 80.72353662 -62.875 70.375 C-64.58684916 68.92079529 -66.29557346 67.46289749 -68 66 C-69.22783157 65.0191597 -70.45671601 64.03963296 -71.6875 63.0625 C-72.450625 62.381875 -73.21375 61.70125 -74 61 C-74 60.34 -74 59.68 -74 59 C-74.66 59 -75.32 59 -76 59 C-76 58.34 -76 57.68 -76 57 C-76.556875 56.79375 -77.11375 56.5875 -77.6875 56.375 C-80.90959519 54.45915961 -82.64504586 51.91342585 -85 49 C-60.7672644 48.46702194 -39.30017631 49.25222143 -20.375 66.375 C-16.89003827 70.22679981 -13.42713989 74.09663224 -10 78 C-10.433125 76.94425781 -10.86625 75.88851562 -11.3125 74.80078125 C-20.15537271 51.85498333 -15.80789575 32.62804777 -6.25390625 10.7578125 C-4.49065739 6.87118779 -2.50160932 3.45324658 0 0 Z " fill="#EAD180" transform="translate(248,590)"/>
<path d="M0 0 C0.66 0 1.32 0 2 0 C3.25249647 3.80213896 4.49724324 7.60672496 5.73535156 11.41357422 C6.36130091 13.33299295 6.99308622 15.25050537 7.625 17.16796875 C13.05604506 33.89909143 16.32332818 50.27016818 9 67 C3.92168205 76.6770853 -1.27671824 82.74848325 -11.80859375 86.2734375 C-28.31087973 90.03038388 -42.99395479 84.19857753 -57 76 C-61.26462359 73.27452975 -65.32635955 70.28119501 -69.36279297 67.23144531 C-72.00705462 65.24253154 -74.69349175 63.31335718 -77.375 61.375 C-78.91712409 60.25062711 -80.45898116 59.12588723 -82 58 C-76.94534374 52.94534374 -64.45682671 54.78013612 -57.6875 54.75 C-55.96756836 54.7190625 -55.96756836 54.7190625 -54.21289062 54.6875 C-36.1897487 54.60590117 -21.8469862 60.86402013 -8 72 C-6.67093174 73.00566165 -5.3393739 74.00810518 -4 75 C-4.74056641 73.44539062 -4.74056641 73.44539062 -5.49609375 71.859375 C-6.14341872 70.4896729 -6.79054366 69.11987625 -7.4375 67.75 C-7.76298828 67.06808594 -8.08847656 66.38617187 -8.42382812 65.68359375 C-8.73642578 65.01972656 -9.04902344 64.35585938 -9.37109375 63.671875 C-9.65911865 63.0644043 -9.94714355 62.45693359 -10.24389648 61.83105469 C-17.38992706 44.52552376 -9.85019992 23.5585129 -3.1875 7.375 C-2.14301142 4.90810934 -1.07737444 2.45281212 0 0 Z " fill="#EAD180" transform="translate(269,628)"/>
<path d="M0 0 C0.66 0 1.32 0 2 0 C3.41438406 1.57286684 4.75604401 3.21139996 6.0625 4.875 C9.1462662 8.74706013 12.30145493 12.45263162 15.6875 16.0625 C23.55650078 24.79819142 28.36694744 33.29982421 27.91015625 45.375 C26.63049939 53.42677351 22.15357929 60.68634055 15.765625 65.67578125 C-5.81060635 81.21276742 -30.52725306 86.34745334 -56.64746094 82.39306641 C-60.78814596 81.7012334 -64.89664432 80.88541755 -69 80 C-69.7719873 79.83411377 -70.54397461 79.66822754 -71.33935547 79.49731445 C-76.74746808 78.25253192 -76.74746808 78.25253192 -79 76 C-49.4946487 63.22023706 -17.8223719 52.41443058 14 64 C11.72874826 61.59854912 9.29115423 59.69729353 6.625 57.75 C-1.00802334 51.8021896 -4.47618377 45.63844737 -6 36 C-6.35416957 29.87279314 -5.74689558 24.02860467 -4.6875 18 C-4.55432373 17.21834473 -4.42114746 16.43668945 -4.28393555 15.63134766 C-3.31957298 10.21125716 -1.99962625 5.14189606 0 0 Z " fill="#EAD180" transform="translate(399,743)"/>
<path d="M0 0 C9.78646632 14.67969947 16.27617801 36.45142887 13.53125 53.99609375 C11.86941488 61.60294619 8.72718703 68.19697901 5 75 C5.63164063 74.35933594 6.26328125 73.71867188 6.9140625 73.05859375 C21.3717816 59.08002096 38.23877382 53.78409523 58.1875 53.875 C59.71419312 53.87790039 59.71419312 53.87790039 61.27172852 53.88085938 C68.22715512 53.92086183 75.08867769 54.16766871 82 55 C80.76089089 58.71732734 79.48990276 59.34063734 76.3125 61.5625 C75.31089844 62.26503906 74.30929687 62.96757813 73.27734375 63.69140625 C72.47272705 64.25239014 72.47272705 64.25239014 71.65185547 64.82470703 C69.99212621 66.00560219 68.37164082 67.22718227 66.75390625 68.46484375 C51.32629891 80.13022482 35.63564271 87.24055393 16 86 C8.27562337 84.73403302 2.99356224 81.89492054 -1.77734375 75.6875 C-11.52454216 61.50975685 -12.90331719 46.41361654 -9.86450195 29.89648438 C-4.72250672 4.72250672 -4.72250672 4.72250672 0 0 Z " fill="#EAD180" transform="translate(754,630)"/>
<path d="M0 0 C14.37178544 13.88676959 27.43794649 32.64371532 29 53 C28.91466282 61.46734425 27.73936483 69.72535176 26 78 C26.47308594 77.10539063 26.94617188 76.21078125 27.43359375 75.2890625 C33.43505443 64.20412013 39.93254753 54.02969889 52 49 C52.88558594 48.60941406 53.77117188 48.21882812 54.68359375 47.81640625 C65.1704584 43.87530887 75.96248874 44.61360537 87 45 C80.00663633 59.49631829 65.70054362 76.18302521 50.62109375 82.2578125 C42.74134295 84.48903851 34.16117957 85.37325543 26 85 C24.0625 83.4375 24.0625 83.4375 22 81 C20.69904732 79.8616664 19.38522275 78.73796261 18.0625 77.625 C4.46632901 65.66238005 0.6350306 49.87182669 -0.6875 32.25 C-1.23963115 21.39893262 -0.88530623 10.82919222 0 0 Z " fill="#EAD180" transform="translate(806,505)"/>
<path d="M0 0 C4.52876686 4.05810194 7.0084357 9.75851652 9.9375 15 C10.55818359 16.08667969 11.17886719 17.17335938 11.81835938 18.29296875 C23.02607357 38.27349438 24.02382416 55.2712057 18 77 C19.62854254 74.7524911 21.25290974 72.50215838 22.875 70.25 C23.56529297 69.29867187 23.56529297 69.29867187 24.26953125 68.328125 C26.92639581 64.6385884 26.92639581 64.6385884 29.12109375 60.66796875 C30.43961366 58.16571096 32.6518018 57.34305122 35.08203125 56.0703125 C37.00233125 54.99869906 38.64187435 53.78683325 40.375 52.4375 C47.24154641 47.41131175 55.84175398 45.970974 64.17578125 45.68359375 C65.33271484 45.64169922 66.48964844 45.59980469 67.68164062 45.55664062 C68.87982422 45.51732422 70.07800781 45.47800781 71.3125 45.4375 C73.1387793 45.37272461 73.1387793 45.37272461 75.00195312 45.30664062 C78.0011947 45.20078504 81.00051591 45.09870274 84 45 C84.33 45.66 84.66 46.32 85 47 C75.6368623 58.69261398 66.55199849 69.5773796 54 78 C53.11570312 78.60070312 52.23140625 79.20140625 51.3203125 79.8203125 C42.92833925 84.97502604 32.86315728 87.12497945 23.0625 85.5 C15.56592727 83.28766557 9.29854458 77.38084238 5 71 C-6.80107708 49.1631039 -3.56758518 23.6553396 0 0 Z " fill="#EAD180" transform="translate(794,549)"/>
<path d="M0 0 C8.01702738 8.01702738 10.80501811 28.64755775 11.09375 39.53515625 C10.60731933 49.9326118 7.39690032 59.43402767 0 67 C-0.66 67 -1.32 67 -2 67 C-2 67.99 -2 68.98 -2 70 C-0.96101562 69.45730469 0.07796875 68.91460938 1.1484375 68.35546875 C27.79112622 54.61668282 53.50273751 57.14315015 82 64 C79.24734888 67.00217087 76.82749655 68.8007281 73.10546875 70.4375 C72.15663818 70.85588135 71.20780762 71.2742627 70.23022461 71.70532227 C69.22612549 72.13256592 68.22202637 72.55980957 67.1875 73 C66.15955322 73.44206787 65.13160645 73.88413574 64.07250977 74.33959961 C45.74966448 82.05048159 25.35124946 86.89938013 6 80 C-3.07329063 76.2495347 -9.63705204 72.03091208 -13.8125 62.9375 C-14.11091797 62.32583984 -14.40933594 61.71417969 -14.71679688 61.08398438 C-19.65289185 50.77723979 -19.1091684 40.52638867 -15.34130859 29.81494141 C-11.40379879 19.36591232 -6.19032258 9.28548386 0 0 Z " fill="#EAD180" transform="translate(697,697)"/>
<path d="M0 0 C0.99 0.495 0.99 0.495 2 1 C7.27634536 19.86460115 8.70145928 46.76251658 1 65 C0.71125 65.75539063 0.4225 66.51078125 0.125 67.2890625 C-3.26114465 75.11952201 -9.26687725 81.80767471 -17.04296875 85.34375 C-26.61236288 88.55264863 -35.96857463 87.81993409 -45.05078125 83.6171875 C-52.91204547 79.30650752 -60.82465929 73.54692281 -67 67 C-67 66.34 -67 65.68 -67 65 C-67.99 64.67 -68.98 64.34 -70 64 C-71.54318872 62.30618696 -73.01400272 60.54557498 -74.4375 58.75 C-75.19933594 57.79609375 -75.96117187 56.8421875 -76.74609375 55.859375 C-77.48988281 54.91578125 -78.23367187 53.9721875 -79 53 C-80.33249983 51.33266688 -81.66555486 49.66577662 -83 48 C-71.51247212 44.17082404 -55.01995864 46.8964911 -43.94140625 51.18359375 C-31.01279326 57.65706947 -22.79526749 68.26482508 -15 80 C-15.27714844 78.98421875 -15.55429688 77.9684375 -15.83984375 76.921875 C-22.14254444 53.27014617 -18.77988084 35.23395597 -6.75073242 14.19580078 C-5.75033569 12.48260702 -4.72555101 10.78372093 -3.69921875 9.0859375 C-2.05542192 6.1006513 -0.96449337 3.26067301 0 0 Z " fill="#EAD180" transform="translate(228,547)"/>
<path d="M0 0 C3.70924496 2.47282997 4.93894408 5.35677893 6.8125 9.25 C7.15998291 9.95930664 7.50746582 10.66861328 7.86547852 11.39941406 C14.86941533 25.84111722 21.13127641 39.67505746 17.28125 56.05859375 C16.33880845 58.49450115 15.26801796 60.71840189 14 63 C13.649375 63.71542969 13.29875 64.43085937 12.9375 65.16796875 C7.91537164 74.4623938 -1.32905645 78.03018269 -11 81 C-33.51747906 87.37761414 -58.39714429 77.30550129 -78 67 C-79.33195498 66.33058373 -80.66486326 65.66304759 -82 65 C-59.89760565 55.90361365 -31.31049713 53.88864907 -9 63 C-5.86352215 64.49164114 -2.88613477 66.06768755 0 68 C0.33 67.67 0.66 67.34 1 67 C0.52949219 66.35933594 0.05898438 65.71867188 -0.42578125 65.05859375 C-8.06666893 54.44361314 -11.26637806 45.39230396 -9.484375 32.17578125 C-7.3767214 21.08817802 -4.782713 10.28283294 0 0 Z " fill="#EAD080" transform="translate(326,697)"/>
<path d="M0 0 C2 1 2 1 2.9296875 3.20214844 C3.24164062 4.1615332 3.55359375 5.12091797 3.875 6.109375 C4.21990479 7.16809814 4.56480957 8.22682129 4.92016602 9.31762695 C5.45468384 11.01665161 5.45468384 11.01665161 6 12.75 C6.36085693 13.8949292 6.72171387 15.0398584 7.09350586 16.21948242 C11.82306686 31.55320556 14.63724725 46.04483291 7 61 C5.73787478 63.06218426 4.38742412 65.01796554 3 67 C3 67.66 3 68.32 3 69 C3.93199219 68.39671875 4.86398437 67.7934375 5.82421875 67.171875 C17.3122496 59.90158395 28.22475004 55.41578838 42 55 C43.75183594 54.94005859 43.75183594 54.94005859 45.5390625 54.87890625 C57.94941036 54.66750754 70.8599778 55.25551433 83 58 C83 58.66 83 59.32 83 60 C35.53271887 87.02318295 35.53271887 87.02318295 8.12109375 80.046875 C-0.05370832 77.30488882 -6.41356784 73.18835195 -10.3046875 65.3828125 C-17.10561896 50.89721272 -15.41862143 38.28688881 -10.07373047 23.42431641 C-7.06430739 15.46143217 -3.92697464 7.56034371 0 0 Z M0 70 C-0.33 70.66 -0.66 71.32 -1 72 C-0.01 71.67 0.98 71.34 2 71 C1.34 70.67 0.68 70.34 0 70 Z " fill="#EBD180" transform="translate(727,667)"/>
<path d="M0 0 C2.55033916 2.25865286 3.70746451 4.25403969 4.90234375 7.4296875 C5.23363281 8.30077148 5.56492187 9.17185547 5.90625 10.06933594 C6.2465625 10.99520508 6.586875 11.92107422 6.9375 12.875 C7.28941406 13.82665039 7.64132812 14.77830078 8.00390625 15.75878906 C8.69894174 17.65276077 9.38900825 19.54856446 10.07373047 21.44628906 C10.83034788 23.53227171 11.61610153 25.6076666 12.41015625 27.6796875 C16.42370189 38.98666553 16.95695072 51.63697256 12.12890625 62.7734375 C7.32110761 72.25594693 1.53002891 76.89304547 -8.44921875 80.23828125 C-9.29097656 80.48964844 -10.13273437 80.74101563 -11 81 C-11.6084375 81.19335938 -12.216875 81.38671875 -12.84375 81.5859375 C-34.61284703 85.76623512 -55.69115237 75.61808054 -73.9140625 64.796875 C-76.88887827 63.06470379 -79.90535037 61.50550523 -83 60 C-82.67 59.34 -82.34 58.68 -82 58 C-54.97469079 50.78381796 -27.84463101 55.44128825 -4 69 C-3.34 69.33 -2.68 69.66 -2 70 C-2.48210937 69.21496094 -2.96421875 68.42992187 -3.4609375 67.62109375 C-4.09257812 66.57050781 -4.72421875 65.51992188 -5.375 64.4375 C-6.00148438 63.40496094 -6.62796875 62.37242187 -7.2734375 61.30859375 C-14.61134679 47.24703455 -11.02158077 30.62763094 -6.53515625 16.23046875 C-2.54434388 3.81651581 -2.54434388 3.81651581 0 0 Z " fill="#EAD180" transform="translate(296,666)"/>
<path d="M0 0 C0.99 0.33 1.98 0.66 3 1 C2.77763672 2.53140625 2.77763672 2.53140625 2.55078125 4.09375 C2.06261038 7.98543794 1.81297245 11.8649528 1.60546875 15.78125 C0.43192854 37.90269728 -1.04745743 58.05387346 -17 75 C-24.52725629 81.67848555 -30.37284816 86.40629045 -40.765625 86.2109375 C-49.0927971 85.42480587 -55.37355351 81.8648145 -62 77 C-63.485 76.01 -63.485 76.01 -65 75 C-65 74.34 -65 73.68 -65 73 C-65.66 73 -66.32 73 -67 73 C-68.23339844 71.67407227 -68.23339844 71.67407227 -69.609375 69.81640625 C-70.36686035 68.80163208 -70.36686035 68.80163208 -71.13964844 67.76635742 C-71.67106445 67.03908447 -72.20248047 66.31181152 -72.75 65.5625 C-73.28915039 64.83200439 -73.82830078 64.10150879 -74.38378906 63.34887695 C-85 48.89511424 -85 48.89511424 -85 45 C-70.41731999 44.26679263 -55.82758821 46.53103296 -43.94921875 55.55859375 C-37.31802788 61.68987222 -32.91525441 69.9690113 -29 78 C-29.03480469 76.82566406 -29.06960937 75.65132812 -29.10546875 74.44140625 C-29.65713315 47.53369361 -22.52633888 27.21103952 -5.23339844 6.54296875 C-4.07282807 5.09110717 -3.0310302 3.54654529 -2 2 C-1.34 2 -0.68 2 0 2 C0 1.34 0 0.68 0 0 Z " fill="#EAD080" transform="translate(205,459)"/>
<path d="M0 0 C8.62433741 8.44018786 15.91222491 17.58713001 22 28 C22.38800781 28.61617188 22.77601563 29.23234375 23.17578125 29.8671875 C30.94512459 43.36604658 31.2905524 60.91744755 30 76 C29.67 76.66 29.34 77.32 29 78 C29.66 78 30.32 78 31 78 C31.268125 77.11957031 31.53625 76.23914063 31.8125 75.33203125 C35.68411489 64.46858552 43.76838152 55.19309542 53.875 49.625 C64.20483903 45.11855628 74.90655107 44.40826145 86 44 C86.33 44.66 86.66 45.32 87 46 C86.24658203 47.61303711 86.24658203 47.61303711 85.0078125 49.52734375 C84.55446533 50.23205811 84.10111816 50.93677246 83.6340332 51.6628418 C83.13605225 52.413479 82.63807129 53.16411621 82.125 53.9375 C81.36932739 55.08569214 81.36932739 55.08569214 80.59838867 56.25708008 C72.00996351 69.13768554 63.36648919 79.8872341 48.0703125 84.59375 C41.70265558 85.84325249 34.97225665 85.58259747 29 83 C29 82.34 29 81.68 29 81 C28.28714844 80.7628125 27.57429687 80.525625 26.83984375 80.28125 C15.84109788 75.31895475 8.94958129 64.57049369 4.8125 53.6875 C-0.24437546 37.12623287 -1.57561843 18.22801642 -1 1 C-0.67 0.67 -0.34 0.34 0 0 Z " fill="#EAD181" transform="translate(818,460)"/>
<path d="M0 0 C0.66 0 1.32 0 2 0 C2.69787656 54.12420419 2.69787656 54.12420419 -12 72 C-12.66 72 -13.32 72 -14 72 C-14 72.66 -14 73.32 -14 74 C-21.38109552 79.75291268 -28.33012897 83.44155676 -37.8125 82.875 C-55.68723606 80.46245894 -67.17894282 68.26793113 -77.9375 54.75 C-78.4104248 54.15952881 -78.88334961 53.56905762 -79.37060547 52.96069336 C-81.84863399 49.77832146 -83.73662927 46.84064703 -85 43 C-82.03 43.33 -79.06 43.66 -76 44 C-75.67 43.34 -75.34 42.68 -75 42 C-75 42.66 -75 43.32 -75 44 C-73.90945312 43.94779297 -73.90945312 43.94779297 -72.796875 43.89453125 C-58.9084897 43.52061318 -47.85447939 46.72779275 -37.5234375 56.29296875 C-32.15916208 61.93532534 -28.3869355 68.0136154 -25 75 C-25.15597656 73.85144531 -25.31195313 72.70289063 -25.47265625 71.51953125 C-28.90187276 44.90858101 -21.44688131 27.46738018 -5.5 6.6875 C-1.3595269 1.3595269 -1.3595269 1.3595269 0 0 Z " fill="#EAD080" transform="translate(216,506)"/>
<path d="M0 0 C1.92271897 2.88407846 2.54808438 4.61517313 3.34106445 7.91674805 C3.58504471 8.92017746 3.82902496 9.92360687 4.08039856 10.95744324 C4.33874985 12.04785416 4.59710114 13.13826508 4.86328125 14.26171875 C5.13714157 15.39914017 5.41100189 16.53656158 5.69316101 17.70845032 C6.27512977 20.13135902 6.85412983 22.55498239 7.43041992 24.97924805 C8.29212979 28.60186395 9.16375281 32.22197353 10.03710938 35.84179688 C12.78989757 47.30819085 15.44255704 58.7889148 17.85546875 70.33203125 C18.16198112 71.7970533 18.16198112 71.7970533 18.47468567 73.29167175 C20.16097559 81.5009115 21.19372388 89.3703223 21.1875 97.75 C21.18814453 98.65580811 21.18878906 99.56161621 21.18945312 100.49487305 C21.11885554 109.74074958 20.17284318 118.83716269 19 128 C14.27776919 124.66666061 11.26831258 120.67830442 8 116 C7.46963135 115.24106445 6.9392627 114.48212891 6.39282227 113.70019531 C-7.61129312 93.18309271 -7.92768785 69.69096902 -6.1875 45.75 C-6.09984375 44.53795898 -6.0121875 43.32591797 -5.921875 42.07714844 C-5.31311548 34.10698532 -4.52513493 26.17736251 -3.5 18.25 C-3.32247192 16.86893066 -3.32247192 16.86893066 -3.14135742 15.45996094 C-2.42036997 10.19064251 -1.38532543 5.13525804 0 0 Z " fill="#EAD180" transform="translate(155,394)"/>
<path d="M0 0 C0.66 0.33 1.32 0.66 2 1 C2.45557597 3.61210991 2.78175618 6.14333073 3.03515625 8.77734375 C3.11873886 9.57668839 3.20232147 10.37603302 3.28843689 11.19960022 C3.46501972 12.90662274 3.63703865 14.61412239 3.80493164 16.32202148 C4.05573806 18.86883583 4.32041632 21.41387307 4.58789062 23.95898438 C8.16933099 58.72008551 10.90144477 92.74064543 -12.30493164 121.40600586 C-12.76762451 121.97456299 -13.23031738 122.54312012 -13.70703125 123.12890625 C-15.95869818 125.74346528 -15.95869818 125.74346528 -17 128 C-17.66 128 -18.32 128 -19 128 C-19.06058594 127.030625 -19.12117187 126.06125 -19.18359375 125.0625 C-19.22379639 124.4233667 -19.26399902 123.7842334 -19.30541992 123.12573242 C-19.39488126 121.68591747 -19.48221997 120.24596934 -19.56762695 118.8059082 C-19.78363223 115.21087982 -20.03356809 111.63038609 -20.359375 108.04296875 C-21.87215688 90.26778169 -18.5590854 73.52420413 -14.375 56.3125 C-13.92895161 54.44103119 -13.48373204 52.56936466 -13.03930664 50.69750977 C-11.71167935 45.12704622 -10.35918691 39.56283553 -9 34 C-8.79320618 33.15151489 -8.58641235 32.30302979 -8.37335205 31.42883301 C-7.07289751 26.09551848 -5.76197914 20.76489956 -4.4375 15.4375 C-4.26796814 14.75515289 -4.09843628 14.07280579 -3.92376709 13.36978149 C-1.17785739 2.35571479 -1.17785739 2.35571479 0 0 Z " fill="#EAD181" transform="translate(869,395)"/>
<path d="M0 0 C3.20400326 1.17225454 5.72692832 2.33669801 8.3046875 4.57421875 C8.88484619 5.0734082 9.46500488 5.57259766 10.06274414 6.08691406 C10.95981079 6.8792041 10.95981079 6.8792041 11.875 7.6875 C12.49560303 8.22987305 13.11620605 8.77224609 13.75561523 9.33105469 C23.27805251 17.70589373 31.91563694 25.55055046 33.4375 38.8125 C33.26864354 45.09637257 29.77639296 50.08336549 25.625 54.5625 C21.30982899 56.92556984 18.05435808 56.48480427 13.3515625 55.375 C5.47120915 52.95691897 0.9782607 49.2199623 -3.08984375 42.08984375 C-7.35283238 32.52267572 -4.61819293 21.58481169 -2.5 11.8125 C-2.26152344 10.66974609 -2.02304687 9.52699219 -1.77734375 8.34960938 C-1.1946213 5.56419608 -0.60205183 2.78128733 0 0 Z " fill="#EAD180" transform="translate(443,757)"/>
<path d="M0 0 C0.66 0 1.32 0 2 0 C9.89836073 32.17265603 9.89836073 32.17265603 3 45 C0.6875 47.8125 0.6875 47.8125 -2 50 C-2.5259375 50.45246094 -3.051875 50.90492188 -3.59375 51.37109375 C-8.03963984 54.93790992 -11.37864909 55.51540078 -17 56 C-17.33 56.66 -17.66 57.32 -18 58 C-18 57.34 -18 56.68 -18 56 C-19.051875 55.9690625 -19.051875 55.9690625 -20.125 55.9375 C-24.42324727 54.53589763 -26.49776895 51.66641106 -29 48 C-31.45987386 42.6330025 -32.05538164 37.90022199 -30.0078125 32.2734375 C-23.67831554 18.43436788 -12.82206874 9.91176809 -1 1 C-0.67 0.67 -0.34 0.34 0 0 Z " fill="#EAD07F" transform="translate(578,757)"/>
<path d="M0 0 C1.30144898 0.5405922 2.60348897 1.07976486 3.90625 1.6171875 C6.60858 2.73473986 9.30653497 3.86129934 12 5 C12 5.66 12 6.32 12 7 C-17.29827558 13.15861711 -47.27036939 10.884725 -73 -5 C-77.72709691 -8.22539485 -81.68965281 -11.30012436 -85 -16 C-83.44539062 -16.09087891 -83.44539062 -16.09087891 -81.859375 -16.18359375 C-80.48957127 -16.26803371 -79.11978025 -16.35267997 -77.75 -16.4375 C-77.06808594 -16.47681641 -76.38617187 -16.51613281 -75.68359375 -16.55664062 C-71.82305904 -16.78238516 -71.82305904 -16.78238516 -68.04296875 -17.53930664 C-47.44806477 -22.18349687 -18.52947424 -7.85561955 0 0 Z " fill="#EAD07F" transform="translate(646,832)"/>
<path d="M0 0 C0 0.99 0 1.98 0 3 C-2.35752456 4.92778324 -4.66375001 6.62762225 -7.1875 8.3125 C-8.27865112 9.04835327 -8.27865112 9.04835327 -9.3918457 9.79907227 C-35.82408378 27.25007103 -65.62342903 28.42250747 -96 23 C-96 22.34 -96 21.68 -96 21 C-29.28867249 -9.58398969 -29.28867249 -9.58398969 0 0 Z " fill="#EAD07F" transform="translate(460,816)"/>
<path d="M0 0 C2.55651912 2.26042509 3.66659744 4.26678 4.875 7.4375 C6.57290993 11.43832226 8.21487241 13.67069071 12 16 C15.00778521 17.00259507 17.53820647 17.30314642 20.6875 17.5625 C21.68136719 17.64628906 22.67523437 17.73007812 23.69921875 17.81640625 C24.83810547 17.90728516 24.83810547 17.90728516 26 18 C24.76210371 21.71368887 23.14775123 22.77354181 20 25 C19.34 25 18.68 25 18 25 C14.58743133 33.41766938 14.73570445 40.14993112 16 49 C13.32897786 48.00790606 11.01253699 47.00824802 8.625 45.4375 C5.27929735 43.6053295 2.81496977 43.13155068 -1 43 C-5.88315363 44.62771788 -9.83621793 47.05488586 -14 50 C-14.33 49.67 -14.66 49.34 -15 49 C-14.76323969 47.10591753 -14.52380688 45.21212321 -14.26953125 43.3203125 C-13.51884119 36.85785024 -13.22173255 31.60225863 -17 26 C-19.83943664 23.3061755 -22.08974009 21.57929776 -26 21 C-25.505 19.515 -25.505 19.515 -25 18 C-23.91332031 17.94392578 -23.91332031 17.94392578 -22.8046875 17.88671875 C-16.01450122 17.42498608 -10.88465381 16.88465381 -5.875 11.875 C-3.41950884 8.10991355 -1.70024082 4.15111987 0 0 Z " fill="#EBD07F" transform="translate(511,794)"/>
<path d="M0 0 C0.33 0 0.66 0 1 0 C1.02315348 9.46620178 1.04093046 18.93239384 1.05181217 28.39861774 C1.0570344 32.79399426 1.06412013 37.18935142 1.07543945 41.5847168 C1.08629171 45.82517373 1.09228182 50.06561203 1.09487724 54.30608177 C1.09672726 55.92522665 1.1003398 57.5443705 1.10573006 59.16350746 C1.11297148 61.42844485 1.11398962 63.69330489 1.11352539 65.95825195 C1.115746 67.24842728 1.11796661 68.5386026 1.12025452 69.86787415 C1 73 1 73 0 76 C-0.66 76 -1.32 76 -2 76 C-2.125 70.25 -2.125 70.25 -1 68 C-0.87922947 65.84588426 -0.82253978 63.68808039 -0.79467773 61.53076172 C-0.78477814 60.86722687 -0.77487854 60.20369202 -0.76467896 59.52005005 C-0.73305084 57.32329903 -0.70830146 55.12652637 -0.68359375 52.9296875 C-0.66302534 51.40796339 -0.6420289 49.886245 -0.62062073 48.36453247 C-0.56538829 44.3565535 -0.51598422 40.34852287 -0.46777344 36.3404541 C-0.41756695 32.25166213 -0.36187644 28.16294532 -0.30664062 24.07421875 C-0.19904472 16.04954268 -0.09760296 8.0248038 0 0 Z " fill="#F3D885" transform="translate(504,560)"/>
<path d="M0 0 C0.66 0 1.32 0 2 0 C3.13002149 6.27789717 3.13002149 6.27789717 2.52734375 9.625 C1.83299538 14.06882954 1.93808591 18.38663554 2 22.875 C2.07020402 31.96562298 1.7178013 40.93775864 1 50 C0.67 50 0.34 50 0 50 C0 33.5 0 17 0 0 Z " fill="#E8CD7A" transform="translate(387,417)"/>
<path d="M0 0 C19.14 0.33 38.28 0.66 58 1 C58 1.33 58 1.66 58 2 C30.775 2.495 30.775 2.495 3 3 C3 2.34 3 1.68 3 1 C2.01 0.67 1.02 0.34 0 0 Z " fill="#F1D783" transform="translate(357,557)"/>
<path d="M0 0 C2.69282475 4.03923713 3.13300939 6.95536152 3.0625 11.75 C3.05347656 12.54921875 3.04445312 13.3484375 3.03515625 14.171875 C3.01775391 15.07679688 3.01775391 15.07679688 3 16 C2.34 15.01 1.68 14.02 1 13 C-0.485 15.475 -0.485 15.475 -2 18 C-3.23853632 14.38905609 -2.79209453 11.59428048 -2.125 7.875 C-1.85042969 6.29332031 -1.85042969 6.29332031 -1.5703125 4.6796875 C-1 2 -1 2 0 0 Z " fill="#E3CB7B" transform="translate(155,394)"/>
<path d="M0 0 C0.88300781 0.17660156 1.76601563 0.35320313 2.67578125 0.53515625 C4.44661458 0.88932292 6.21744792 1.24348958 7.98828125 1.59765625 C8.98408203 1.79681641 8.98408203 1.79681641 10 2 C10 2.33 10 2.66 10 3 C-0.56 2.34 -11.12 1.68 -22 1 C-22 0.67 -22 0.34 -22 0 C-19.27119539 -0.19555932 -16.54228931 -0.38170447 -13.8125 -0.5625 C-13.04357422 -0.61857422 -12.27464844 -0.67464844 -11.48242188 -0.73242188 C-7.4412008 -0.99258632 -3.95539037 -1.02948517 0 0 Z " fill="#F1D883" transform="translate(702,783)"/>
<path d="M0 0 C0.66 0.33 1.32 0.66 2 1 C2.16682272 5.92127034 2.24828052 9.50343896 0 14 C-1.99174103 11.18813032 -2.08443886 9.18282387 -1.6875 5.875 C-1 2 -1 2 0 0 Z " fill="#E1C978" transform="translate(869,395)"/>
<path d="M0 0 C-1.07401108 2.91517292 -1.77810176 4.77810176 -4 7 C-4 5.68 -4 4.36 -4 3 C-6.64 2.67 -9.28 2.34 -12 2 C-12 1.67 -12 1.34 -12 1 C-10.56274129 0.83126522 -9.12518162 0.66509263 -7.6875 0.5 C-6.88699219 0.4071875 -6.08648438 0.314375 -5.26171875 0.21875 C-3 0 -3 0 0 0 Z " fill="#DAC376" transform="translate(658,170)"/>
<path d="M0 0 C5.02254631 -0.2954439 7.89542386 0.01485372 12 3 C8.52128379 4.15957207 7.65780355 3.77456651 4.3125 2.5625 C3.50425781 2.27503906 2.69601562 1.98757813 1.86328125 1.69140625 C1.24839844 1.46324219 0.63351562 1.23507812 0 1 C0 0.67 0 0.34 0 0 Z " fill="#F1D783" transform="translate(667,808)"/>
<path d="M0 0 C3.55780196 0.60990891 6.6828589 1.5783681 10 3 C9.67 3.66 9.34 4.32 9 5 C5.7 4.01 2.4 3.02 -1 2 C-0.67 1.34 -0.34 0.68 0 0 Z " fill="#F1D684" transform="translate(595,277)"/>
<path d="M0 0 C-5.04414952 3.36276635 -8.03201996 3.03291962 -14 2 C-14 1.67 -14 1.34 -14 1 C-9.27685687 0.22887459 -4.78478822 -0.09764874 0 0 Z " fill="#F2D783" transform="translate(495,262)"/>
<path d="M0 0 C0.90105469 0.01804688 1.80210937 0.03609375 2.73046875 0.0546875 C3.41753906 0.07789063 4.10460937 0.10109375 4.8125 0.125 C4.8125 0.455 4.8125 0.785 4.8125 1.125 C-3.61607143 3.55357143 -3.61607143 3.55357143 -8.1875 2.125 C-4.87379 -0.08414 -3.8428979 -0.09981553 0 0 Z " fill="#F4DB86" transform="translate(651.1875,171.875)"/>
<path d="M0 0 C3.96 0 7.92 0 12 0 C12 0.33 12 0.66 12 1 C8.7 1.66 5.4 2.32 2 3 C1.34 2.01 0.68 1.02 0 0 Z " fill="#E7CD7B" transform="translate(561,816)"/>
<path d="M0 0 C4 1 4 1 4 1 Z " fill="#E9CF7D" transform="translate(719,781)"/>
<path d="M0 0 C4 1 4 1 4 1 Z " fill="#E9D17F" transform="translate(265,749)"/>
<path d="M0 0 C1 4 1 4 1 4 Z " fill="#EDD483" transform="translate(176,504)"/>
<path d="M0 0 C3 1 3 1 3 1 Z " fill="#EED482" transform="translate(456,717)"/>
<path d="M0 0 C3 1 3 1 3 1 Z " fill="#F0D581" transform="translate(413,536)"/>
<path d="M0 0 C0.99 0.495 0.99 0.495 2 1 C1.01 1.495 1.01 1.495 0 2 C0 1.34 0 0.68 0 0 Z " fill="#F0D481" transform="translate(342,535)"/>
<path d="" fill="#EDD584" transform="translate(0,0)"/>
<path d="" fill="#EDD684" transform="translate(0,0)"/>
<path d="M0 0 C3 1 3 1 3 1 Z " fill="#ECD281" transform="translate(484,239)"/>
<path d="M0 0 C2 1 2 1 2 1 Z " fill="#E4CC7D" transform="translate(700,806)"/>
<path d="M0 0 C2 1 2 1 2 1 Z " fill="#E9D07F" transform="translate(688,806)"/>
<path d="M0 0 C2 1 2 1 2 1 Z " fill="#E7D07D" transform="translate(336,806)"/>
<path d="M0 0 C2 1 2 1 2 1 Z " fill="#E6CE7B" transform="translate(328,806)"/>
<path d="" fill="#ECD27F" transform="translate(0,0)"/>
<path d="M0 0 C2 1 2 1 2 1 Z " fill="#E8CE7C" transform="translate(727,781)"/>
<path d="M0 0 C2 1 2 1 2 1 Z " fill="#EAD180" transform="translate(308,780)"/>
<path d="M0 0 C2 1 2 1 2 1 Z " fill="#E9D17E" transform="translate(752,750)"/>
<path d="M0 0 C2 1 2 1 2 1 Z " fill="#E8CE7E" transform="translate(760,749)"/>
<path d="M0 0 C2 1 2 1 2 1 Z " fill="#ECD581" transform="translate(500,749)"/>
<path d="M0 0 C2 1 2 1 2 1 Z " fill="#EFD481" transform="translate(484,748)"/>
<path d="M0 0 C2 1 2 1 2 1 Z " fill="#EED482" transform="translate(400,724)"/>
<path d="M0 0 C2 1 2 1 2 1 Z " fill="#EDD484" transform="translate(568,720)"/>
<path d="M0 0 C2 1 2 1 2 1 Z " fill="#E8D07D" transform="translate(233,720)"/>
<path d="M0 0 C2 1 2 1 2 1 Z " fill="#EAD280" transform="translate(241,716)"/>
<path d="M0 0 C2 1 2 1 2 1 Z " fill="#EFD583" transform="translate(640,688)"/>
<path d="M0 0 C2 1 2 1 2 1 Z " fill="#EAD17F" transform="translate(198,635)"/>
<path d="" fill="#EFD683" transform="translate(0,0)"/>
<path d="M0 0 C2 1 2 1 2 1 Z " fill="#EBD27F" transform="translate(176,543)"/>
<path d="M0 0 C2 1 2 1 2 1 Z " fill="#EFD47F" transform="translate(629,536)"/>
<path d="M0 0 C2 1 2 1 2 1 Z " fill="#F1D47E" transform="translate(625,536)"/>
<path d="M0 0 C2 1 2 1 2 1 Z " fill="#EFD681" transform="translate(409,536)"/>
<path d="M0 0 C2 1 2 1 2 1 Z " fill="#EED47F" transform="translate(365,536)"/>
<path d="M0 0 C2 1 2 1 2 1 Z " fill="#EFD481" transform="translate(353,536)"/>
<path d="" fill="#EED584" transform="translate(0,0)"/>
<path d="" fill="#EED482" transform="translate(0,0)"/>
<path d="" fill="#EFD482" transform="translate(0,0)"/>
<path d="M0 0 C2 1 2 1 2 1 Z " fill="#EDD381" transform="translate(350,511)"/>
<path d="" fill="#F0D785" transform="translate(0,0)"/>
<path d="M0 0 C2 1 2 1 2 1 Z " fill="#EDD481" transform="translate(419,502)"/>
<path d="" fill="#EDD684" transform="translate(0,0)"/>
<path d="" fill="#EED480" transform="translate(0,0)"/>
<path d="" fill="#ECD481" transform="translate(0,0)"/>
<path d="" fill="#ECD480" transform="translate(0,0)"/>
<path d="" fill="#EDD582" transform="translate(0,0)"/>
<path d="" fill="#EFD380" transform="translate(0,0)"/>
<path d="M0 0 C2 1 2 1 2 1 Z " fill="#EED381" transform="translate(561,380)"/>
<path d="M0 0 C2 1 2 1 2 1 Z " fill="#EBD683" transform="translate(486,368)"/>
<path d="M0 0 C2 1 2 1 2 1 Z " fill="#EFD684" transform="translate(406,293)"/>
<path d="M0 0 C2 1 2 1 2 1 Z " fill="#EDD382" transform="translate(568,287)"/>
<path d="M0 0 C2 1 2 1 2 1 Z " fill="#EDD480" transform="translate(454,287)"/>
<path d="M0 0 C2 1 2 1 2 1 Z " fill="#EED582" transform="translate(459,286)"/>
<path d="M0 0 C2 1 2 1 2 1 Z " fill="#EFD584" transform="translate(601,283)"/>
<path d="M0 0 C2 1 2 1 2 1 Z " fill="#ECD382" transform="translate(592,279)"/>
<path d="" fill="#EFD584" transform="translate(0,0)"/>
<path d="M0 0 C2 1 2 1 2 1 Z " fill="#EDD583" transform="translate(475,267)"/>
<path d="" fill="#5A4F31" transform="translate(0,0)"/>
<path d="" fill="#DEC678" transform="translate(0,0)"/>
<path d="" fill="#D2BB6F" transform="translate(0,0)"/>
<path d="" fill="#D8C173" transform="translate(0,0)"/>
<path d="" fill="#E4C979" transform="translate(0,0)"/>
<path d="" fill="#E0C878" transform="translate(0,0)"/>
<path d="" fill="#E7CC7B" transform="translate(0,0)"/>
<path d="" fill="#EAD17F" transform="translate(0,0)"/>
<path d="" fill="#E2CA78" transform="translate(0,0)"/>
<path d="" fill="#E5CB79" transform="translate(0,0)"/>
<path d="" fill="#D2BA6F" transform="translate(0,0)"/>
<path d="" fill="#ECD17F" transform="translate(0,0)"/>
<path d="" fill="#E5CD7B" transform="translate(0,0)"/>
<path d="" fill="#EBD07E" transform="translate(0,0)"/>
<path d="" fill="#DCC376" transform="translate(0,0)"/>
<path d="" fill="#E9D07E" transform="translate(0,0)"/>
<path d="" fill="#E9D17C" transform="translate(0,0)"/>
<path d="" fill="#E9CF7D" transform="translate(0,0)"/>
<path d="" fill="#E7CE7E" transform="translate(0,0)"/>
<path d="" fill="#EACE7D" transform="translate(0,0)"/>
<path d="" fill="#E8CE7C" transform="translate(0,0)"/>
<path d="" fill="#E4CC79" transform="translate(0,0)"/>
<path d="" fill="#EBD17E" transform="translate(0,0)"/>
<path d="" fill="#EBD380" transform="translate(0,0)"/>
<path d="" fill="#DEC676" transform="translate(0,0)"/>
<path d="" fill="#EDD481" transform="translate(0,0)"/>
<path d="" fill="#ECD57F" transform="translate(0,0)"/>
<path d="" fill="#ECD180" transform="translate(0,0)"/>
<path d="" fill="#EED381" transform="translate(0,0)"/>
<path d="" fill="#EBD27E" transform="translate(0,0)"/>
<path d="" fill="#D9C073" transform="translate(0,0)"/>
<path d="" fill="#EBD27F" transform="translate(0,0)"/>
<path d="" fill="#ECD380" transform="translate(0,0)"/>
<path d="" fill="#EDD380" transform="translate(0,0)"/>
<path d="" fill="#EED380" transform="translate(0,0)"/>
<path d="" fill="#EDD382" transform="translate(0,0)"/>
<path d="" fill="#EDD27F" transform="translate(0,0)"/>
<path d="" fill="#ECD180" transform="translate(0,0)"/>
<path d="" fill="#EACF7E" transform="translate(0,0)"/>
<path d="" fill="#EAD381" transform="translate(0,0)"/>
<path d="" fill="#ECD483" transform="translate(0,0)"/>
<path d="" fill="#EAD27E" transform="translate(0,0)"/>
<path d="" fill="#ECD17F" transform="translate(0,0)"/>
<path d="" fill="#EDD17E" transform="translate(0,0)"/>
<path d="" fill="#EED380" transform="translate(0,0)"/>
<path d="" fill="#E0C77A" transform="translate(0,0)"/>
<path d="" fill="#ECD381" transform="translate(0,0)"/>
<path d="" fill="#EDD381" transform="translate(0,0)"/>
<path d="" fill="#DAC475" transform="translate(0,0)"/>
<path d="" fill="#ECD281" transform="translate(0,0)"/>
<path d="" fill="#ECD281" transform="translate(0,0)"/>
<path d="" fill="#ECD27F" transform="translate(0,0)"/>
<path d="" fill="#EAD17F" transform="translate(0,0)"/>
<path d="" fill="#ECD380" transform="translate(0,0)"/>
<path d="" fill="#EDD481" transform="translate(0,0)"/>
<path d="" fill="#EED480" transform="translate(0,0)"/>
<path d="" fill="#EAD17F" transform="translate(0,0)"/>
<path d="" fill="#E8CF80" transform="translate(0,0)"/>
<path d="" fill="#EFD481" transform="translate(0,0)"/>
<path d="" fill="#F0D683" transform="translate(0,0)"/>
<path d="" fill="#EBD280" transform="translate(0,0)"/>
<path d="" fill="#E5CB7C" transform="translate(0,0)"/>
<path d="" fill="#EDD381" transform="translate(0,0)"/>
<path d="" fill="#EDD383" transform="translate(0,0)"/>
<path d="" fill="#EDD381" transform="translate(0,0)"/>
<path d="" fill="#EFD581" transform="translate(0,0)"/>
<path d="" fill="#EDD481" transform="translate(0,0)"/>
<path d="" fill="#EFD681" transform="translate(0,0)"/>
<path d="" fill="#EED682" transform="translate(0,0)"/>
<path d="" fill="#EDD681" transform="translate(0,0)"/>
<path d="" fill="#EED684" transform="translate(0,0)"/>
<path d="" fill="#EED583" transform="translate(0,0)"/>
<path d="" fill="#EBD27E" transform="translate(0,0)"/>
<path d="" fill="#EED483" transform="translate(0,0)"/>
<path d="" fill="#EFD583" transform="translate(0,0)"/>
<path d="" fill="#EED581" transform="translate(0,0)"/>
<path d="" fill="#E7CF7F" transform="translate(0,0)"/>
<path d="" fill="#ECD380" transform="translate(0,0)"/>
<path d="" fill="#EDD281" transform="translate(0,0)"/>
<path d="" fill="#EDD180" transform="translate(0,0)"/>
<path d="" fill="#F0D583" transform="translate(0,0)"/>
<path d="" fill="#E8CE7F" transform="translate(0,0)"/>
<path d="" fill="#E8D07E" transform="translate(0,0)"/>
<path d="" fill="#ECD382" transform="translate(0,0)"/>
<path d="" fill="#EED581" transform="translate(0,0)"/>
<path d="" fill="#EFD383" transform="translate(0,0)"/>
<path d="" fill="#ECD280" transform="translate(0,0)"/>
<path d="" fill="#EED481" transform="translate(0,0)"/>
<path d="" fill="#EED582" transform="translate(0,0)"/>
<path d="" fill="#EED37E" transform="translate(0,0)"/>
<path d="" fill="#EBD483" transform="translate(0,0)"/>
<path d="" fill="#EED582" transform="translate(0,0)"/>
<path d="" fill="#EED783" transform="translate(0,0)"/>
<path d="" fill="#ECD382" transform="translate(0,0)"/>
<path d="" fill="#ECD483" transform="translate(0,0)"/>
<path d="" fill="#EFD583" transform="translate(0,0)"/>
<path d="" fill="#F0D581" transform="translate(0,0)"/>
<path d="" fill="#EFD37F" transform="translate(0,0)"/>
<path d="" fill="#EDD17F" transform="translate(0,0)"/>
<path d="" fill="#EFD784" transform="translate(0,0)"/>
<path d="" fill="#EED581" transform="translate(0,0)"/>
<path d="" fill="#EED682" transform="translate(0,0)"/>
<path d="" fill="#EED482" transform="translate(0,0)"/>
<path d="" fill="#EAD37E" transform="translate(0,0)"/>
<path d="" fill="#F0D584" transform="translate(0,0)"/>
<path d="" fill="#EED481" transform="translate(0,0)"/>
<path d="" fill="#EAD380" transform="translate(0,0)"/>
<path d="" fill="#E7D27F" transform="translate(0,0)"/>
<path d="" fill="#EED581" transform="translate(0,0)"/>
<path d="" fill="#F1D481" transform="translate(0,0)"/>
<path d="" fill="#EBD17F" transform="translate(0,0)"/>
<path d="" fill="#E9D17E" transform="translate(0,0)"/>
<path d="" fill="#EDD382" transform="translate(0,0)"/>
<path d="" fill="#EFD482" transform="translate(0,0)"/>
<path d="" fill="#EED482" transform="translate(0,0)"/>
<path d="" fill="#EDD481" transform="translate(0,0)"/>
<path d="" fill="#ECD582" transform="translate(0,0)"/>
<path d="" fill="#ECD481" transform="translate(0,0)"/>
<path d="" fill="#E6CD7C" transform="translate(0,0)"/>
<path d="" fill="#EBD07F" transform="translate(0,0)"/>
<path d="" fill="#EBD07F" transform="translate(0,0)"/>
<path d="" fill="#EBD27F" transform="translate(0,0)"/>
<path d="" fill="#EED682" transform="translate(0,0)"/>
<path d="" fill="#EED480" transform="translate(0,0)"/>
<path d="" fill="#ECD482" transform="translate(0,0)"/>
<path d="" fill="#EED481" transform="translate(0,0)"/>
<path d="" fill="#EFD583" transform="translate(0,0)"/>
<path d="" fill="#EED582" transform="translate(0,0)"/>
<path d="" fill="#F0D784" transform="translate(0,0)"/>
<path d="" fill="#ECD381" transform="translate(0,0)"/>
<path d="" fill="#E2C77A" transform="translate(0,0)"/>
<path d="" fill="#EDD480" transform="translate(0,0)"/>
<path d="" fill="#EDD382" transform="translate(0,0)"/>
<path d="" fill="#ECD27E" transform="translate(0,0)"/>
<path d="" fill="#ECD380" transform="translate(0,0)"/>
<path d="" fill="#ECD182" transform="translate(0,0)"/>
<path d="" fill="#EFD583" transform="translate(0,0)"/>
<path d="" fill="#EDD483" transform="translate(0,0)"/>
<path d="" fill="#EFD482" transform="translate(0,0)"/>
<path d="" fill="#DEC777" transform="translate(0,0)"/>
<path d="" fill="#EDD381" transform="translate(0,0)"/>
<path d="" fill="#E6D17E" transform="translate(0,0)"/>
<path d="" fill="#DBC375" transform="translate(0,0)"/>
<path d="" fill="#EBD07F" transform="translate(0,0)"/>
<path d="" fill="#ECD281" transform="translate(0,0)"/>
<path d="" fill="#ECD480" transform="translate(0,0)"/>
<path d="" fill="#EDD684" transform="translate(0,0)"/>
<path d="" fill="#EAD280" transform="translate(0,0)"/>
<path d="" fill="#EED482" transform="translate(0,0)"/>
<path d="" fill="#EFD685" transform="translate(0,0)"/>
<path d="" fill="#EED583" transform="translate(0,0)"/>
<path d="" fill="#EED484" transform="translate(0,0)"/>
<path d="" fill="#EBD382" transform="translate(0,0)"/>
<path d="" fill="#ECD381" transform="translate(0,0)"/>
<path d="" fill="#EED582" transform="translate(0,0)"/>
<path d="" fill="#EED682" transform="translate(0,0)"/>
<path d="" fill="#DDC878" transform="translate(0,0)"/>
<path d="" fill="#EED582" transform="translate(0,0)"/>
<path d="" fill="#DDC778" transform="translate(0,0)"/>
<path d="" fill="#EFD382" transform="translate(0,0)"/>
<path d="" fill="#EED682" transform="translate(0,0)"/>
<path d="" fill="#EBD180" transform="translate(0,0)"/>
<path d="" fill="#EFD785" transform="translate(0,0)"/>
<path d="" fill="#EED481" transform="translate(0,0)"/>
<path d="" fill="#ECD481" transform="translate(0,0)"/>
<path d="" fill="#EDD581" transform="translate(0,0)"/>
<path d="" fill="#ECD480" transform="translate(0,0)"/>
<path d="" fill="#EBD380" transform="translate(0,0)"/>
<path d="" fill="#E1CC7B" transform="translate(0,0)"/>
<path d="" fill="#EBD280" transform="translate(0,0)"/>
<path d="" fill="#ECD582" transform="translate(0,0)"/>
<path d="" fill="#EDD582" transform="translate(0,0)"/>
<path d="" fill="#EBD180" transform="translate(0,0)"/>
<path d="" fill="#E6CE7E" transform="translate(0,0)"/>
<path d="" fill="#EED683" transform="translate(0,0)"/>
<path d="" fill="#E8CE7F" transform="translate(0,0)"/>
<path d="" fill="#ECD37F" transform="translate(0,0)"/>
<path d="" fill="#EDD280" transform="translate(0,0)"/>
<path d="" fill="#EED684" transform="translate(0,0)"/>
<path d="" fill="#EFD584" transform="translate(0,0)"/>
<path d="" fill="#EFD581" transform="translate(0,0)"/>
<path d="" fill="#F0D482" transform="translate(0,0)"/>
<path d="" fill="#E8CF7E" transform="translate(0,0)"/>
<path d="" fill="#EFD67F" transform="translate(0,0)"/>
<path d="" fill="#EED580" transform="translate(0,0)"/>
<path d="" fill="#EFD582" transform="translate(0,0)"/>
<path d="" fill="#EED481" transform="translate(0,0)"/>
<path d="" fill="#F0D481" transform="translate(0,0)"/>
<path d="" fill="#EED180" transform="translate(0,0)"/>
<path d="" fill="#F0D580" transform="translate(0,0)"/>
<path d="" fill="#F0D480" transform="translate(0,0)"/>
<path d="" fill="#EED380" transform="translate(0,0)"/>
<path d="" fill="#EDD380" transform="translate(0,0)"/>
<path d="" fill="#ECD482" transform="translate(0,0)"/>
<path d="" fill="#EFD683" transform="translate(0,0)"/>
<path d="" fill="#EFD485" transform="translate(0,0)"/>
<path d="" fill="#EDD482" transform="translate(0,0)"/>
<path d="" fill="#EED27F" transform="translate(0,0)"/>
<path d="" fill="#EBD581" transform="translate(0,0)"/>
<path d="" fill="#EED381" transform="translate(0,0)"/>
<path d="" fill="#EFD684" transform="translate(0,0)"/>
<path d="" fill="#EED280" transform="translate(0,0)"/>
<path d="" fill="#EED480" transform="translate(0,0)"/>
<path d="" fill="#EDD383" transform="translate(0,0)"/>
<path d="" fill="#ECD380" transform="translate(0,0)"/>
<path d="" fill="#ECD480" transform="translate(0,0)"/>
<path d="" fill="#EED481" transform="translate(0,0)"/>
<path d="" fill="#ECD381" transform="translate(0,0)"/>
<path d="" fill="#EED481" transform="translate(0,0)"/>
<path d="" fill="#EFD482" transform="translate(0,0)"/>
<path d="" fill="#EED583" transform="translate(0,0)"/>
<path d="" fill="#F2D481" transform="translate(0,0)"/>
<path d="" fill="#EBD482" transform="translate(0,0)"/>
<path d="" fill="#ECD381" transform="translate(0,0)"/>
<path d="" fill="#EFD482" transform="translate(0,0)"/>
<path d="" fill="#EDD681" transform="translate(0,0)"/>
<path d="" fill="#EFD685" transform="translate(0,0)"/>
<path d="" fill="#EDD683" transform="translate(0,0)"/>
<path d="" fill="#EDD484" transform="translate(0,0)"/>
<path d="" fill="#EFD685" transform="translate(0,0)"/>
<path d="" fill="#EFD483" transform="translate(0,0)"/>
<path d="" fill="#EDD381" transform="translate(0,0)"/>
<path d="" fill="#F0D781" transform="translate(0,0)"/>
<path d="" fill="#EAD082" transform="translate(0,0)"/>
<path d="" fill="#EFD580" transform="translate(0,0)"/>
<path d="" fill="#EDD281" transform="translate(0,0)"/>
<path d="" fill="#EED683" transform="translate(0,0)"/>
<path d="" fill="#EDD382" transform="translate(0,0)"/>
<path d="" fill="#EDD47F" transform="translate(0,0)"/>
<path d="" fill="#EAD382" transform="translate(0,0)"/>
<path d="" fill="#EED680" transform="translate(0,0)"/>
<path d="" fill="#EED786" transform="translate(0,0)"/>
<path d="" fill="#E6CE80" transform="translate(0,0)"/>
<path d="" fill="#E3CD7C" transform="translate(0,0)"/>
<path d="" fill="#EED283" transform="translate(0,0)"/>
<path d="" fill="#EBD381" transform="translate(0,0)"/>
<path d="" fill="#EDD180" transform="translate(0,0)"/>
<path d="" fill="#E8CF80" transform="translate(0,0)"/>
<path d="" fill="#ECD47F" transform="translate(0,0)"/>
<path d="" fill="#EFD481" transform="translate(0,0)"/>
<path d="" fill="#EAD081" transform="translate(0,0)"/>
<path d="" fill="#EDD382" transform="translate(0,0)"/>
<path d="" fill="#EED581" transform="translate(0,0)"/>
<path d="" fill="#EBD381" transform="translate(0,0)"/>
<path d="" fill="#EED582" transform="translate(0,0)"/>
<path d="" fill="#EDD683" transform="translate(0,0)"/>
<path d="" fill="#EAD484" transform="translate(0,0)"/>
<path d="" fill="#E2CC80" transform="translate(0,0)"/>
<path d="" fill="#E5CF7F" transform="translate(0,0)"/>
<path d="" fill="#EDD47F" transform="translate(0,0)"/>
<path d="" fill="#EDD380" transform="translate(0,0)"/>
<path d="" fill="#EBD282" transform="translate(0,0)"/>
<path d="" fill="#EED183" transform="translate(0,0)"/>
<path d="" fill="#EDD683" transform="translate(0,0)"/>
<path d="" fill="#EFD685" transform="translate(0,0)"/>
<path d="" fill="#EDD382" transform="translate(0,0)"/>
<path d="" fill="#EFD684" transform="translate(0,0)"/>
<path d="" fill="#DDC67A" transform="translate(0,0)"/>
<path d="" fill="#EDD585" transform="translate(0,0)"/>
<path d="" fill="#EED482" transform="translate(0,0)"/>
<path d="" fill="#ECD581" transform="translate(0,0)"/>
<path d="" fill="#EDD683" transform="translate(0,0)"/>
<path d="" fill="#EED680" transform="translate(0,0)"/>
<path d="" fill="#F3D682" transform="translate(0,0)"/>
<path d="" fill="#EDD582" transform="translate(0,0)"/>
<path d="" fill="#EDD280" transform="translate(0,0)"/>
<path d="" fill="#EDD581" transform="translate(0,0)"/>
<path d="" fill="#C0AE68" transform="translate(0,0)"/>
<path d="" fill="#EED485" transform="translate(0,0)"/>
<path d="" fill="#B4A361" transform="translate(0,0)"/>
<path d="" fill="#EAD07E" transform="translate(0,0)"/>
<path d="" fill="#EED483" transform="translate(0,0)"/>
<path d="" fill="#EFD484" transform="translate(0,0)"/>
<path d="" fill="#EED784" transform="translate(0,0)"/>
<path d="" fill="#F0D782" transform="translate(0,0)"/>
<path d="" fill="#F0D685" transform="translate(0,0)"/>
<path d="" fill="#EFD484" transform="translate(0,0)"/>
<path d="" fill="#EED983" transform="translate(0,0)"/>
<path d="" fill="#EDD381" transform="translate(0,0)"/>
<path d="" fill="#EFD281" transform="translate(0,0)"/>
<path d="" fill="#ECD382" transform="translate(0,0)"/>
<path d="" fill="#E5CD7E" transform="translate(0,0)"/>
<path d="" fill="#ECD583" transform="translate(0,0)"/>
<path d="" fill="#EFD482" transform="translate(0,0)"/>
<path d="" fill="#EDD481" transform="translate(0,0)"/>
<path d="" fill="#ECD482" transform="translate(0,0)"/>
<path d="" fill="#EDD383" transform="translate(0,0)"/>
<path d="" fill="#EDD382" transform="translate(0,0)"/>
<path d="" fill="#EFD582" transform="translate(0,0)"/>
<path d="" fill="#EDD483" transform="translate(0,0)"/>
<path d="" fill="#EDD382" transform="translate(0,0)"/>
<path d="" fill="#EED483" transform="translate(0,0)"/>
<path d="" fill="#EFD583" transform="translate(0,0)"/>
<path d="" fill="#EFD783" transform="translate(0,0)"/>
<path d="" fill="#EED683" transform="translate(0,0)"/>
<path d="" fill="#F0D584" transform="translate(0,0)"/>
<path d="" fill="#EED483" transform="translate(0,0)"/>
<path d="" fill="#EDD480" transform="translate(0,0)"/>
<path d="" fill="#E5CD7E" transform="translate(0,0)"/>
<path d="" fill="#EED682" transform="translate(0,0)"/>
<path d="" fill="#EFD785" transform="translate(0,0)"/>
<path d="" fill="#EDD383" transform="translate(0,0)"/>
<path d="" fill="#EED482" transform="translate(0,0)"/>
<path d="" fill="#EFD584" transform="translate(0,0)"/>
<path d="" fill="#EFD484" transform="translate(0,0)"/>
<path d="" fill="#F0D683" transform="translate(0,0)"/>
<path d="" fill="#EDD481" transform="translate(0,0)"/>
<path d="" fill="#EFD484" transform="translate(0,0)"/>
<path d="" fill="#EDD784" transform="translate(0,0)"/>
<path d="" fill="#EFD583" transform="translate(0,0)"/>
<path d="" fill="#EDD381" transform="translate(0,0)"/>
<path d="" fill="#F0D482" transform="translate(0,0)"/>
<path d="" fill="#EDD584" transform="translate(0,0)"/>
<path d="" fill="#EED483" transform="translate(0,0)"/>
<path d="" fill="#EBD482" transform="translate(0,0)"/>
<path d="" fill="#ECD082" transform="translate(0,0)"/>
<path d="" fill="#EDD380" transform="translate(0,0)"/>
<path d="" fill="#EED683" transform="translate(0,0)"/>
<path d="" fill="#EED684" transform="translate(0,0)"/>
<path d="" fill="#EED482" transform="translate(0,0)"/>
<path d="" fill="#EED583" transform="translate(0,0)"/>
<path d="" fill="#E7D07E" transform="translate(0,0)"/>
<path d="" fill="#EED784" transform="translate(0,0)"/>
<path d="" fill="#EED682" transform="translate(0,0)"/>
<path d="" fill="#EDD383" transform="translate(0,0)"/>
<path d="" fill="#EED481" transform="translate(0,0)"/>
<path d="" fill="#EFD484" transform="translate(0,0)"/>
<path d="" fill="#EFD483" transform="translate(0,0)"/>
<path d="" fill="#EED482" transform="translate(0,0)"/>
<path d="" fill="#ECD684" transform="translate(0,0)"/>
<path d="" fill="#EDD682" transform="translate(0,0)"/>
<path d="" fill="#EFD484" transform="translate(0,0)"/>
<path d="" fill="#EED483" transform="translate(0,0)"/>
<path d="" fill="#F0D381" transform="translate(0,0)"/>
<path d="" fill="#ECD582" transform="translate(0,0)"/>
<path d="" fill="#EDD482" transform="translate(0,0)"/>
<path d="" fill="#EFD681" transform="translate(0,0)"/>
<path d="" fill="#ECD582" transform="translate(0,0)"/>
<path d="" fill="#EDD480" transform="translate(0,0)"/>
<path d="" fill="#ECD482" transform="translate(0,0)"/>
<path d="" fill="#EED581" transform="translate(0,0)"/>
<path d="" fill="#EFD582" transform="translate(0,0)"/>
<path d="" fill="#EBD281" transform="translate(0,0)"/>
<path d="" fill="#EED380" transform="translate(0,0)"/>
<path d="" fill="#EDD482" transform="translate(0,0)"/>
<path d="" fill="#E4CE7D" transform="translate(0,0)"/>
<path d="" fill="#EDD482" transform="translate(0,0)"/>
<path d="" fill="#EDD684" transform="translate(0,0)"/>
<path d="" fill="#E3CA7D" transform="translate(0,0)"/>
<path d="" fill="#EBD381" transform="translate(0,0)"/>
<path d="" fill="#EDD481" transform="translate(0,0)"/>
<path d="" fill="#EBD381" transform="translate(0,0)"/>
<path d="" fill="#EBD280" transform="translate(0,0)"/>
<path d="" fill="#E1CA7B" transform="translate(0,0)"/>
<path d="" fill="#EAD37F" transform="translate(0,0)"/>
<path d="" fill="#ECD481" transform="translate(0,0)"/>
<path d="" fill="#DDC478" transform="translate(0,0)"/>
</svg>
