<?xml version="1.0" encoding="UTF-8"?>
<svg version="1.1" xmlns="http://www.w3.org/2000/svg" width="500" height="500">
<path d="M0 0 C2.98046875 1.4609375 2.98046875 1.4609375 6.1875 3.375 C7.42964737 4.10683895 8.67183717 4.83860589 9.9140625 5.5703125 C10.57438477 5.96379883 11.23470703 6.35728516 11.91503906 6.76269531 C15.61239984 8.95686679 19.33981347 11.09918297 23.0625 13.25 C23.84705566 13.7047168 24.63161133 14.15943359 25.43994141 14.62792969 C31.80203526 18.31480581 38.17896519 21.975387 44.5625 25.625 C45.47330322 26.14610352 46.38410645 26.66720703 47.32250977 27.20410156 C48.16612061 27.68588867 49.00973145 28.16767578 49.87890625 28.6640625 C50.6272876 29.09154785 51.37566895 29.5190332 52.14672852 29.95947266 C53.41404587 30.6710135 54.7000358 31.3500179 56 32 C56 32.66 56 33.32 56 34 C56.5779834 34.12221924 57.1559668 34.24443848 57.75146484 34.37036133 C60.07242239 35.02027984 61.87775076 35.8970152 63.9765625 37.07421875 C64.72462158 37.4913916 65.47268066 37.90856445 66.2434082 38.33837891 C67.0293335 38.78358887 67.81525879 39.22879883 68.625 39.6875 C69.43606201 40.14302246 70.24712402 40.59854492 71.08276367 41.06787109 C77.84633201 44.88029825 84.50933942 48.82822881 91.1015625 52.9296875 C97.02756193 56.60741548 102.9770742 60.14134335 109.12109375 63.44140625 C116.77348142 67.58428641 124.33638786 71.8674477 131.625 76.625 C137.18671563 80.23058316 143.02192303 83.15180626 149 86 C149 86.66 149 87.32 149 88 C149.56517334 88.1131958 150.13034668 88.2263916 150.71264648 88.34301758 C153.28820326 89.08277884 155.28237107 90.16359897 157.59765625 91.51171875 C158.47719971 92.01993164 159.35674316 92.52814453 160.26293945 93.05175781 C161.18679443 93.59155273 162.11064941 94.13134766 163.0625 94.6875 C164.95266648 95.78074106 166.84328755 96.87319655 168.734375 97.96484375 C169.64123047 98.48933105 170.54808594 99.01381836 171.48242188 99.55419922 C175.9446998 102.11680685 180.46084003 104.57627992 185 107 C185 107.66 185 108.32 185 109 C185.55558594 109.11085938 186.11117188 109.22171875 186.68359375 109.3359375 C189.39201129 110.11238098 191.59401205 111.26533211 194.0625 112.625 C195.34833984 113.32496094 195.34833984 113.32496094 196.66015625 114.0390625 C197.76230469 114.68617187 198.86445313 115.33328125 200 116 C200.88720639 116.2909105 201.77441278 116.581821 202.68850422 116.88154697 C206.43402706 118.46717394 208.40713732 119.82892225 211 123 C213.22804754 130.60997557 212.38497117 139.0925453 212.2487793 146.92749023 C212.24567594 149.41124839 212.24741922 151.89501664 212.25364685 154.37876892 C212.25615039 159.72310769 212.22499556 165.06562029 212.16303062 170.40948296 C212.07350292 178.13540534 212.04497233 185.86061408 212.03116272 193.58699895 C212.00710739 206.12310222 211.93395852 218.65841667 211.82983398 231.1940918 C211.72881263 243.36885642 211.65097626 255.54340654 211.60424805 267.71850586 C211.59991311 268.84483159 211.59991311 268.84483159 211.5954906 269.99391138 C211.58113484 273.76100155 211.56723413 277.52809323 211.55355966 281.29518592 C211.43958696 312.53069751 211.24507844 343.76522879 211 375 C209.68 375.33 208.36 375.66 207 376 C207 376.66 207 377.32 207 378 C205.89785156 378.60585938 204.79570312 379.21171875 203.66015625 379.8359375 C190.63887221 387.01739926 177.75858088 394.40435237 165.125 402.25 C160.45359226 405.14430467 155.71914235 407.84162878 150.87890625 410.44140625 C143.22651858 414.58428641 135.66361214 418.8674477 128.375 423.625 C124.77840339 425.95467321 121.17440852 427.95691273 117.3125 429.8125 C111.67455944 432.54781052 106.47162636 435.76084276 101.19555664 439.12084961 C95.99636831 442.41716321 90.70055248 445.47226553 85.31079102 448.44433594 C81.37417187 450.62829456 77.49858885 452.89043594 73.65234375 455.23046875 C72.29157715 456.05828857 72.29157715 456.05828857 70.90332031 456.90283203 C69.11920381 457.99312545 67.33847983 459.08899354 65.56152344 460.19091797 C64.75102539 460.6860791 63.94052734 461.18124023 63.10546875 461.69140625 C62.38512451 462.13685791 61.66478027 462.58230957 60.92260742 463.04125977 C59 464 59 464 56 464 C56 464.66 56 465.32 56 466 C55.36835938 466.3403125 54.73671875 466.680625 54.0859375 467.03125 C43.93544799 472.53065066 33.93888771 478.29139374 23.9519043 484.08032227 C22.32171429 485.024219 20.69037044 485.96612583 19.05786133 486.90600586 C15.30703799 489.06770951 11.57442034 491.24765697 7.88671875 493.515625 C6.943125 494.08506836 6.943125 494.08506836 5.98046875 494.66601562 C4.30705269 495.67772141 2.64335405 496.70545206 0.98046875 497.734375 C-2.65735538 499.27913911 -4.24509442 499.14407279 -8 498 C-10.98046875 496.5390625 -10.98046875 496.5390625 -14.1875 494.625 C-15.42964737 493.89316105 -16.67183717 493.16139411 -17.9140625 492.4296875 C-18.57438477 492.03620117 -19.23470703 491.64271484 -19.91503906 491.23730469 C-23.61239984 489.04313321 -27.33981347 486.90081703 -31.0625 484.75 C-31.84705566 484.2952832 -32.63161133 483.84056641 -33.43994141 483.37207031 C-39.80203526 479.68519419 -46.17896519 476.024613 -52.5625 472.375 C-53.47330322 471.85389648 -54.38410645 471.33279297 -55.32250977 470.79589844 C-56.16612061 470.31411133 -57.00973145 469.83232422 -57.87890625 469.3359375 C-58.6272876 468.90845215 -59.37566895 468.4809668 -60.14672852 468.04052734 C-61.41404587 467.3289865 -62.7000358 466.6499821 -64 466 C-64 465.34 -64 464.68 -64 464 C-64.57097412 463.88317871 -65.14194824 463.76635742 -65.73022461 463.64599609 C-68.19945279 462.94323415 -70.09625936 461.95023997 -72.31640625 460.6640625 C-73.15308838 460.18259766 -73.98977051 459.70113281 -74.85180664 459.20507812 C-76.19359985 458.42293945 -76.19359985 458.42293945 -77.5625 457.625 C-78.49634521 457.08552734 -79.43019043 456.54605469 -80.39233398 455.99023438 C-82.32654778 454.87217282 -84.25956389 453.75203688 -86.19140625 452.62988281 C-88.7592133 451.13973331 -91.33147746 449.65775865 -93.90625 448.1796875 C-103.02737135 442.93544657 -112.0674605 437.5689736 -121.07568359 432.13330078 C-126.04769298 429.14264057 -131.05856529 426.27599969 -136.1796875 423.546875 C-140.69489445 421.0703903 -145.11113941 418.42735924 -149.54296875 415.80541992 C-153.90349291 413.22765415 -158.2811401 410.68655064 -162.6875 408.1875 C-168.64694528 404.79959618 -174.54413483 401.31389784 -180.4375 397.8125 C-191.85900636 391.0314497 -203.41170051 384.49092475 -215 378 C-215 377.34 -215 376.68 -215 376 C-216.32 375.67 -217.64 375.34 -219 375 C-219.29663888 343.03308452 -219.52666218 311.06656095 -219.66384928 279.09859052 C-219.68010824 275.32353725 -219.69693446 271.5484867 -219.71411133 267.7734375 C-219.71752136 267.02190106 -219.7209314 266.27036462 -219.72444477 265.49605435 C-219.78099501 253.33103151 -219.883483 241.16680823 -220.00298635 229.00225955 C-220.12460757 216.51789383 -220.1967742 204.03394648 -220.22315043 191.54901266 C-220.24097929 183.84611678 -220.2972532 176.14548067 -220.40291407 168.44328064 C-220.4798354 162.53464848 -220.48790602 156.62717246 -220.47039986 150.71802521 C-220.47397677 148.29595785 -220.49984615 145.87380509 -220.54967117 143.45224762 C-220.89875729 125.61127769 -220.89875729 125.61127769 -217.74395156 121.27261162 C-214.28622567 118.12196135 -210.36048931 116.62691162 -206 115 C-204.09966282 113.87507569 -202.21889552 112.71523061 -200.375 111.5 C-196.37234043 109 -196.37234043 109 -193 109 C-193 108.34 -193 107.68 -193 107 C-192.36835938 106.6596875 -191.73671875 106.319375 -191.0859375 105.96875 C-185.63007265 103.01283475 -180.20407151 100.00884162 -174.8125 96.9375 C-174.21703369 96.59847656 -173.62156738 96.25945312 -173.00805664 95.91015625 C-169.71722316 94.02367373 -166.49413096 92.06455097 -163.3125 90 C-160 88 -160 88 -157 88 C-157 87.34 -157 86.68 -157 86 C-156.29617187 85.67128906 -155.59234375 85.34257813 -154.8671875 85.00390625 C-148.29475852 81.83781448 -142.2300628 78.32236296 -136.14404297 74.32080078 C-131.81097478 71.48419845 -127.3866177 68.94113674 -122.8125 66.5078125 C-117.13790941 63.46560143 -111.57784165 60.2152398 -106 57 C-105.27216309 56.58057129 -104.54432617 56.16114258 -103.79443359 55.72900391 C-95.01105275 50.66359351 -86.24343073 45.57158663 -77.5 40.4375 C-76.78803467 40.02000488 -76.07606934 39.60250977 -75.3425293 39.17236328 C-72.5140013 37.50779166 -69.73153828 35.82102552 -67 34 C-66.01 34 -65.02 34 -64 34 C-64 33.34 -64 32.68 -64 32 C-62.94425781 31.41734375 -61.88851562 30.8346875 -60.80078125 30.234375 C-45.27362646 21.64726674 -29.77064123 12.99929641 -14.61645508 3.76538086 C-13.0837385 2.83347673 -11.54231021 1.91593922 -10 1 C-9.33097656 0.56945312 -8.66195312 0.13890625 -7.97265625 -0.3046875 C-4.99695391 -1.35354892 -3.02413642 -0.80593424 0 0 Z " fill="#EBD080" transform="translate(254,1)"/>
<path d="M0 0 C5.61 0 11.22 0 17 0 C17 12.54 17 25.08 17 38 C19.97 38.99 19.97 38.99 23 40 C27.08139837 42.72093225 29.55996305 45.75252827 32 50 C32 50.99 32 51.98 32 53 C67.31 53 102.62 53 139 53 C139 58.61 139 64.22 139 70 C131.74 70 124.48 70 117 70 C118.51207031 73.42632812 118.51207031 73.42632812 120.0546875 76.921875 C123.88184972 85.64241963 127.51916023 94.43616456 131.125 103.25 C132.02172399 105.43713167 132.91897788 107.62404531 133.81634521 109.81091309 C134.39787079 111.22820247 134.97913307 112.64559992 135.56011963 114.06311035 C137.25213131 118.18885088 138.95918199 122.30790843 140.6796875 126.421875 C142.15584739 129.95332211 143.6035143 133.49325446 145.015625 137.05078125 C146.41379697 140.57082689 147.86876735 144.06105907 149.359375 147.54296875 C149.75253906 148.47173828 150.14570313 149.40050781 150.55078125 150.35742188 C151.35685781 152.25971005 152.1721267 154.15812675 152.99609375 156.05273438 C157.29718775 166.30534218 155.94034248 173.89178286 152.2265625 184.1328125 C147.97188021 193.77415677 139.660839 201.8870964 130 206 C121.39878318 209.09722287 113.2055128 209.48779488 104.125 209.4375 C102.21654297 209.4674707 102.21654297 209.4674707 100.26953125 209.49804688 C89.50890253 209.49255115 78.60845581 207.96874994 70 201 C69.44054687 200.58105469 68.88109375 200.16210938 68.3046875 199.73046875 C61.38278865 194.29183394 57.07827601 187.15743142 54 179 C53.608125 178.05125 53.21625 177.1025 52.8125 176.125 C51.12235609 169.62444652 51.46466754 164.75125685 54.16796875 158.5625 C54.62228271 157.50659668 55.07659668 156.45069336 55.54467773 155.36279297 C56.02493408 154.25307129 56.50519043 153.14334961 57 152 C57.93643635 149.754328 58.86865052 147.50689122 59.796875 145.2578125 C60.27632568 144.10007324 60.75577637 142.94233398 61.24975586 141.74951172 C61.74483643 140.55342285 62.23991699 139.35733398 62.75 138.125 C63.13818405 137.18772064 63.13818405 137.18772064 63.53421021 136.23150635 C67.40703932 126.87953038 71.24066571 117.51213329 75.05102539 108.13452148 C76.83419478 103.76812171 78.67248737 99.45346028 80.6875 95.1875 C84.04362048 88.02934094 86.45044152 80.47344806 89 73 C89.66 73 90.32 73 91 73 C91 72.01 91 71.02 91 70 C71.53 70 52.06 70 32 70 C31.67 71.65 31.34 73.3 31 75 C29.8359375 76.87890625 29.8359375 76.87890625 28.375 78.5625 C27.90835938 79.12066406 27.44171875 79.67882812 26.9609375 80.25390625 C25 82 25 82 21.43284607 83.36932373 C18.90616115 84.81293616 18.13821811 85.50479358 17.34599495 88.34316254 C17.09352293 91.52547936 17.06943393 94.64464154 17.11352539 97.83691406 C17.10274963 99.04694092 17.09197388 100.25696777 17.08087158 101.50366211 C17.05816228 104.81835383 17.06637357 108.13026746 17.08831334 111.44478321 C17.10394523 114.90956773 17.08008361 118.37407463 17.06040955 121.83880615 C17.02916621 128.39787352 17.03344586 134.95641769 17.05048412 141.51551795 C17.06815414 148.98353231 17.04622958 156.45126615 17.02097714 163.91923952 C16.96992427 179.27960653 16.9686006 194.63956689 17 210 C18.10158447 210.14099121 19.20316895 210.28198242 20.33813477 210.42724609 C29.42625195 211.84872239 38.21204554 219.10932991 43.7578125 226.26953125 C47.61280113 231.884406 50 236.03737135 50 243 C22.28 243 -5.44 243 -34 243 C-32.28412242 232.70473454 -27.18651908 224.49181396 -19 218 C-12.50060964 213.54302792 -7.93280526 211.13325789 0 210 C-0.33 169.08 -0.66 128.16 -1 86 C-2.98 85.01 -4.96 84.02 -7 83 C-10.92519385 79.43994046 -14.30995747 76.07012759 -16 71 C-35.14 70.67 -54.28 70.34 -74 70 C-68.27002906 85.11134467 -68.27002906 85.11134467 -62 100 C-61.27347698 101.6998237 -60.55327686 103.40238702 -59.84375 105.109375 C-59.27841553 106.46748291 -59.27841553 106.46748291 -58.70166016 107.85302734 C-58.3051123 108.80902832 -57.90856445 109.7650293 -57.5 110.75 C-57.07638184 111.76916504 -56.65276367 112.78833008 -56.21630859 113.83837891 C-54.809423 117.22498625 -53.40455798 120.61242669 -52 124 C-51.47691529 125.2607535 -50.9538027 126.52149544 -50.43066406 127.78222656 C-49.08986855 131.01384047 -47.75001844 134.2458449 -46.41088867 137.47814941 C-45.64461465 139.32765734 -44.87797617 141.17701426 -44.11132812 143.02636719 C-43.16862605 145.30424581 -42.22862775 147.58324588 -41.29174805 149.86352539 C-40.46364041 151.87424146 -39.62729042 153.88159434 -38.78051758 155.88452148 C-38.41853271 156.75407471 -38.05654785 157.62362793 -37.68359375 158.51953125 C-37.36962646 159.26307861 -37.05565918 160.00662598 -36.73217773 160.77270508 C-33.6849394 170.04244676 -37.04394405 178.56041397 -41 187 C-46.32452436 196.73102728 -55.26558748 204.09011991 -65.78735352 207.59545898 C-72.71608429 209.44547863 -79.7938756 209.33763891 -86.91137695 209.31567383 C-89.06187086 209.31250093 -91.21100208 209.33608783 -93.36132812 209.36132812 C-100.52705752 209.3947903 -106.5096783 209.21440103 -113 206 C-113.84949219 205.58878906 -114.69898437 205.17757812 -115.57421875 204.75390625 C-127.08048065 198.26701183 -133.60561044 189.99513233 -138.25 177.6875 C-139.7469097 170.32769396 -139.83294767 164.29303435 -136.75390625 157.33984375 C-136.29894775 156.29078857 -135.84398926 155.2417334 -135.37524414 154.16088867 C-134.92141357 153.11779541 -134.46758301 152.07470215 -134 151 C-133.2523333 149.16473068 -132.51248011 147.32625488 -131.78125 145.484375 C-131.22896729 144.09726318 -131.22896729 144.09726318 -130.66552734 142.68212891 C-130.28090332 141.71452637 -129.8962793 140.74692383 -129.5 139.75 C-121.33106349 119.27273886 -113.11584374 98.80857753 -104.48828125 78.51953125 C-103.2931171 75.69317194 -102.13967475 72.84918686 -101 70 C-107.93 70 -114.86 70 -122 70 C-122 64.39 -122 58.78 -122 53 C-87.02 53 -52.04 53 -16 53 C-15.34 51.35 -14.68 49.7 -14 48 C-12.4140625 45.83203125 -12.4140625 45.83203125 -10.625 43.8125 C-10.03976563 43.13832031 -9.45453125 42.46414062 -8.8515625 41.76953125 C-5.97203426 39.01757705 -3.99795649 38 0 38 C0 25.46 0 12.92 0 0 Z " fill="#032447" transform="translate(241,101)"/>
<path d="M0 0 C1.66233925 -0.01007584 1.66233925 -0.01007584 3.35826111 -0.02035522 C7.01053386 -0.03930518 10.66262259 -0.0432578 14.31494141 -0.04541016 C16.86170527 -0.05183961 19.40846839 -0.05856808 21.95523071 -0.06558228 C27.28967295 -0.07754716 32.62404702 -0.08134972 37.95849609 -0.08007812 C44.10647673 -0.07887707 50.25410612 -0.09997974 56.40199792 -0.13156545 C62.33775747 -0.16096397 68.27341068 -0.1680517 74.20924759 -0.16685867 C76.72496603 -0.16921408 79.24068725 -0.17803416 81.7563591 -0.19352341 C85.27927317 -0.2131855 88.80128928 -0.20734372 92.32421875 -0.1953125 C93.87218895 -0.21217102 93.87218895 -0.21217102 95.45143127 -0.22937012 C104.34791426 -0.15242027 111.7274373 2.38498205 118.28369141 8.56005859 C125.34984348 16.66965799 123.79150391 24.1350273 123.79150391 35.29052734 C72.31150391 35.29052734 20.83150391 35.29052734 -32.20849609 35.29052734 C-32.20849609 15.83258342 -32.20849609 15.83258342 -25.11865234 7.97412109 C-17.33518639 0.53658696 -10.37753487 -0.00907881 0 0 Z " fill="#022346" transform="translate(203.20849609375,361.70947265625)"/>
<path d="M0 0 C2.91164507 1.45582254 3.15162786 3.35615891 4.36328125 6.3515625 C4.83193604 7.49858643 5.30059082 8.64561035 5.78344727 9.82739258 C6.29316758 11.09324719 6.80285086 12.35911673 7.3125 13.625 C8.11167767 15.58870701 8.9133072 17.55140166 9.71507263 19.51405334 C10.27521343 20.88559836 10.8345755 22.25746164 11.39320374 23.62962341 C13.42438262 28.61371537 15.49035034 33.58233492 17.578125 38.54296875 C17.87071701 39.23821655 18.16330902 39.93346436 18.46476746 40.64978027 C19.60924995 43.36717266 20.75487443 46.08407969 21.90200806 48.800354 C30 67.98391731 30 67.98391731 30 72 C10.2 72 -9.6 72 -30 72 C-27.77097821 64.19842374 -27.77097821 64.19842374 -26.1171875 61.1640625 C-23.78989359 56.68816607 -21.95701504 52.07121527 -20.125 47.375 C-17.31332921 40.25445846 -14.41376244 33.19155909 -11.3671875 26.16796875 C-10.02651282 23.061434 -8.72715347 19.94051042 -7.4375 16.8125 C-5.08904196 11.14722623 -2.57465266 5.56563212 0 0 Z " fill="#E5CD81" transform="translate(153,186)"/>
<path d="M0 0 C0.66 0 1.32 0 2 0 C5.89362617 9.21322972 9.77801638 18.42881784 13.5625 27.6875 C16.14186128 33.99523091 18.82383348 40.25134605 21.60375977 46.47338867 C23.31529676 50.32907138 24.84967808 54.21889338 26.30810547 58.17700195 C27.45521427 61.19939484 28.85017079 64.09867602 30.23046875 67.01953125 C31 69 31 69 31 72 C11.2 72 -8.6 72 -29 72 C-26.96535454 65.89606362 -24.85183188 60.06587413 -22.3125 54.1875 C-19.43737335 47.44835814 -16.64289168 40.6840757 -13.9375 33.875 C-11.38861236 27.46465383 -8.81564572 21.0658102 -6.1875 14.6875 C-5.7706897 13.67502197 -5.7706897 13.67502197 -5.34545898 12.64208984 C-3.59853988 8.41270675 -1.81042936 4.20258827 0 0 Z " fill="#E8CF81" transform="translate(344,186)"/>
<path d="M0 0 C0.99 0.33 1.98 0.66 3 1 C3 84.16 3 167.32 3 253 C1.68 253.33 0.36 253.66 -1 254 C-1 254.66 -1 255.32 -1 256 C-3.89306764 257.6299605 -6.78992283 259.25307168 -9.6875 260.875 C-10.91243164 261.56529297 -10.91243164 261.56529297 -12.16210938 262.26953125 C-16.03436082 264.43297538 -19.80487311 266.51333589 -24 268 C-23.75 266.125 -23.75 266.125 -23 264 C-20.06004981 261.97244814 -18.72295997 262 -15 262 C-15 261.34 -15 260.68 -15 260 C-14.01 260 -13.02 260 -12 260 C-12 259.01 -12 258.02 -12 257 C-10.35 257 -8.7 257 -7 257 C-7 256.34 -7 255.68 -7 255 C-5.35 255 -3.7 255 -2 255 C-2 254.01 -2 253.02 -2 252 C-1.01 252 -0.02 252 1 252 C0.67 168.84 0.34 85.68 0 0 Z " fill="#E6D28B" transform="translate(462,123)"/>
<path d="M0 0 C2.31 0.33 4.62 0.66 7 1 C7 2.65 7 4.3 7 6 C8.670625 6.4021875 8.670625 6.4021875 10.375 6.8125 C14 8 14 8 16 11 C16.23047829 13.29008007 16.23047829 13.29008007 16.20254517 16.03031921 C16.19688034 17.06938416 16.19121552 18.1084491 16.18537903 19.17900085 C16.16056709 20.88803337 16.16056709 20.88803337 16.13525391 22.6315918 C16.12579239 23.83171906 16.11633087 25.03184631 16.10658264 26.26834106 C16.0786554 29.55954081 16.04174066 32.85041114 16.00085878 36.14146018 C15.96025094 39.58071596 15.93109154 43.02006816 15.90072632 46.45942688 C15.84148062 52.97242229 15.77191445 59.4852651 15.69865549 65.99811631 C15.61575465 73.41272238 15.5443359 80.82742506 15.47388959 88.24215829 C15.32871765 103.49491599 15.16910045 118.74748769 15 134 C14.34 134.33 13.68 134.66 13 135 C12.67 93.75 12.34 52.5 12 10 C10.02 9.01 8.04 8.02 6 7 C1.40816327 2.81632653 1.40816327 2.81632653 0 0 Z " fill="#082238" transform="translate(228,177)"/>
<path d="M0 0 C0 0.66 0 1.32 0 2 C-2.74454257 4.45048444 -4.30756248 5.07689062 -8 6 C-8 88.5 -8 171 -8 256 C-7.01 256.33 -6.02 256.66 -5 257 C-4.505 258.485 -4.505 258.485 -4 260 C-4.66 260 -5.32 260 -6 260 C-6 259.34 -6 258.68 -6 258 C-7.32 257.67 -8.64 257.34 -10 257 C-10.18244869 224.98188169 -10.32404997 192.96391109 -10.40852264 160.94539453 C-10.41852845 157.16647636 -10.42888301 153.38755921 -10.43945312 149.60864258 C-10.44260085 148.48015752 -10.44260085 148.48015752 -10.44581217 147.32887479 C-10.48063549 135.1426901 -10.54371876 122.95680691 -10.61722237 110.77080116 C-10.69199981 98.26946865 -10.73646275 85.76829417 -10.75270796 73.26674718 C-10.76369252 65.55063706 -10.7984 57.83537907 -10.86333174 50.11953124 C-10.91056657 44.20584007 -10.91565049 38.29258769 -10.90486145 32.37870216 C-10.90706734 29.95062506 -10.9230474 27.52251652 -10.9536438 25.0946312 C-10.99332043 21.7846114 -10.98393225 18.47826793 -10.96203613 15.16816711 C-10.99699023 13.71923497 -10.99699023 13.71923497 -11.03265047 12.24103147 C-10.91885214 5.89846574 -10.91885214 5.89846574 -8.224967 3.26434934 C-3.18781803 0 -3.18781803 0 0 0 Z " fill="#EADDB1" transform="translate(45,119)"/>
<path d="M0 0 C0.99 0.33 1.98 0.66 3 1 C3 84.16 3 167.32 3 253 C2.67 253 2.34 253 2 253 C1.99576806 251.72040783 1.99153612 250.44081566 1.98717594 249.12244797 C1.88654627 218.76190324 1.78084577 188.4013809 1.66888306 158.04087602 C1.65511313 154.30573389 1.64138609 150.5705916 1.62768555 146.83544922 C1.62495724 146.09183538 1.62222894 145.34822155 1.61941796 144.58207396 C1.57531764 132.53441274 1.53469271 120.48674217 1.49534739 108.43906459 C1.45491193 96.08121534 1.41075272 83.72338345 1.36312145 71.36555982 C1.33383754 63.73734735 1.30747397 56.10913618 1.28482103 48.48090109 C1.26715326 42.63604638 1.24430989 36.79121919 1.21950912 30.94639015 C1.21013794 28.54536605 1.2024629 26.14433467 1.19658089 23.74329948 C1.18832091 20.4735034 1.17404438 17.20378791 1.15821838 13.934021 C1.15724028 12.97682624 1.15626217 12.01963148 1.15525442 11.03343081 C1.14977998 10.15810112 1.14430554 9.28277143 1.1386652 8.3809166 C1.13600716 7.62603258 1.13334911 6.87114856 1.13061053 6.09338927 C0.99706513 3.95296074 0.58601592 2.05883897 0 0 Z " fill="#E4D8A8" transform="translate(462,123)"/>
<path d="M0 0 C0.66 0 1.32 0 2 0 C3.32031054 3.05919048 4.6298406 6.12288284 5.9375 9.1875 C6.49727539 10.48397461 6.49727539 10.48397461 7.06835938 11.80664062 C7.60493164 13.06831055 7.60493164 13.06831055 8.15234375 14.35546875 C8.48226318 15.12528076 8.81218262 15.89509277 9.15209961 16.68823242 C10.05511385 19.15026577 10.70991313 21.39030978 11 24 C10.34 24.66 9.68 25.32 9 26 C9 24.02 9 22.04 9 20 C8.34 20 7.68 20 7 20 C7 19.34 7 18.68 7 18 C6.01 18 5.02 18 4 18 C4.33 15.69 4.66 13.38 5 11 C4.01 11 3.02 11 2 11 C2.268125 11.721875 2.53625 12.44375 2.8125 13.1875 C3 16 3 16 0.5625 18.8125 C-0.283125 19.534375 -1.12875 20.25625 -2 21 C-2.33 20.34 -2.66 19.68 -3 19 C-6.41703059 21.2780204 -6.79651189 22.38372165 -8.1875 26.125 C-8.70376953 27.49011719 -8.70376953 27.49011719 -9.23046875 28.8828125 C-9.48441406 29.58148438 -9.73835938 30.28015625 -10 31 C-10.66 31 -11.32 31 -12 31 C-8.6581764 20.41755859 -4.39723874 10.18170161 0 0 Z " fill="#E3CC82" transform="translate(344,186)"/>
<path d="M0 0 C0.99 0.33 1.98 0.66 3 1 C3.19412181 2.47831221 3.38012131 3.95769316 3.5625 5.4375 C3.71912109 6.67306641 3.71912109 6.67306641 3.87890625 7.93359375 C3.91886719 8.61550781 3.95882812 9.29742187 4 10 C2.14355286 11.85644714 -0.9313067 11.18331712 -3.41577148 11.22119141 C-4.08570129 11.2326973 -4.7556311 11.24420319 -5.44586182 11.25605774 C-7.67089177 11.2928812 -9.89595055 11.32244432 -12.12109375 11.3515625 C-13.66187459 11.37466636 -15.20265115 11.39805658 -16.74342346 11.42172241 C-19.97743098 11.47024423 -23.21146393 11.51516491 -26.44555664 11.55761719 C-30.59652847 11.61240912 -34.74730291 11.67624066 -38.89810085 11.74279213 C-42.08155989 11.79281213 -45.26507369 11.83796096 -48.44862556 11.88163376 C-49.97930186 11.90323924 -51.5099571 11.92639251 -53.04058647 11.9510994 C-55.17863639 11.9848956 -57.31667089 12.0121273 -59.45483398 12.03759766 C-60.67315414 12.05456696 -61.8914743 12.07153625 -63.14671326 12.08901978 C-66 12 -66 12 -68 11 C-70.37123246 10.76970044 -72.74741943 10.58880058 -75.125 10.4375 C-76.40632812 10.35371094 -77.68765625 10.26992188 -79.0078125 10.18359375 C-79.99523437 10.12300781 -80.98265625 10.06242187 -82 10 C-82 9.67 -82 9.34 -82 9 C-54.28 9 -26.56 9 2 9 C1.01 4.545 1.01 4.545 0 0 Z " fill="#B9AF7C" transform="translate(289,335)"/>
<path d="M0 0 C19.47 0 38.94 0 59 0 C59 0.99 59 1.98 59 3 C58.34 3 57.68 3 57 3 C56.896875 3.845625 56.79375 4.69125 56.6875 5.5625 C55.9171146 9.41442701 54.63725486 12.44075031 53 16 C52.67 16 52.34 16 52 16 C52 14.02 52 12.04 52 10 C52.66 10 53.32 10 54 10 C54.144375 9.05125 54.28875 8.1025 54.4375 7.125 C55 4 55 4 56 2 C38.51 2 21.02 2 3 2 C3 2.99 3 3.98 3 5 C2.01 5 1.02 5 0 5 C0 5.66 0 6.32 0 7 C-0.99 7.33 -1.98 7.66 -3 8 C-2.690625 7.236875 -2.38125 6.47375 -2.0625 5.6875 C-1.32106407 3.81210323 -0.63771783 1.91315348 0 0 Z " fill="#BEB68B" transform="translate(273,171)"/>
<path d="M0 0 C19.14 0 38.28 0 58 0 C57.67 0.99 57.34 1.98 57 3 C39.18 2.67 21.36 2.34 3 2 C3.66 4.64 4.32 7.28 5 10 C5.66 10 6.32 10 7 10 C7 12.64 7 15.28 7 18 C5.03369604 15.05054406 3.74259147 12.26302526 2.375 9 C1.92898437 7.948125 1.48296875 6.89625 1.0234375 5.8125 C0 3 0 3 0 0 Z " fill="#B9B38A" transform="translate(167,171)"/>
<path d="M0 0 C0.33 0 0.66 0 1 0 C1 40.92 1 81.84 1 124 C3.31 124.33 5.62 124.66 8 125 C8.33 125.66 8.66 126.32 9 127 C5.7 127 2.4 127 -1 127 C-0.67 85.09 -0.34 43.18 0 0 Z " fill="#314243" transform="translate(257,187)"/>
<path d="M0 0 C0 0.66 0 1.32 0 2 C-0.99 2.495 -0.99 2.495 -2 3 C-2.9200575 6.36143062 -3.13211375 9.57112911 -3.15821838 13.04304504 C-3.1680072 14.03437439 -3.17779602 15.02570374 -3.18788147 16.04707336 C-3.19363693 17.12313339 -3.1993924 18.19919342 -3.20532227 19.30786133 C-3.21522186 20.44975922 -3.22512146 21.5916571 -3.23532104 22.76815796 C-3.26688767 26.53942802 -3.29167448 30.31071068 -3.31640625 34.08203125 C-3.33697994 36.69805731 -3.35797653 39.31408008 -3.37937927 41.93009949 C-3.42922662 48.10999425 -3.47419485 54.28991446 -3.51740164 60.46985883 C-3.56684217 67.50735586 -3.62173495 74.54480709 -3.67708123 81.58225977 C-3.79077904 96.05479645 -3.89764449 110.52737872 -4 125 C-2.35 125.33 -0.7 125.66 1 126 C-2.75 127.125 -2.75 127.125 -5 126 C-5.07001349 109.86697108 -5.12295047 93.73399127 -5.15543652 77.60084724 C-5.17091981 70.11031142 -5.19203708 62.61986986 -5.22631836 55.12939453 C-5.25617617 48.60235021 -5.27556436 42.07537414 -5.28226548 35.54826343 C-5.28618394 32.09067455 -5.29542275 28.63328097 -5.31719017 25.17575455 C-5.34126623 21.32041961 -5.34197233 17.46527751 -5.34057617 13.60986328 C-5.351362 12.45756226 -5.36214783 11.30526123 -5.3732605 10.11804199 C-5.36913651 9.07193756 -5.36501251 8.02583313 -5.36076355 6.94802856 C-5.36352893 6.03545351 -5.36629431 5.12287846 -5.36914349 4.18264961 C-5.24732614 3.46237524 -5.12550879 2.74210087 -5 2 C-2 0 -2 0 0 0 Z " fill="#CAC18C" transform="translate(263,185)"/>
<path d="M0 0 C4.82718836 4.13759002 7.80593249 9.0246672 10 15 C10 16.65 10 18.3 10 20 C-17.72 20 -45.44 20 -74 20 C-73.505 18.515 -73.505 18.515 -73 17 C-73 17.66 -73 18.32 -73 19 C-46.27 19 -19.54 19 8 19 C8 17.35 8 15.7 8 14 C7.34 14 6.68 14 6 14 C6 12.68 6 11.36 6 10 C5.01 10.33 4.02 10.66 3 11 C3.33 9.68 3.66 8.36 4 7 C3.01 7.33 2.02 7.66 1 8 C0.505 4.04 0.505 4.04 0 0 Z " fill="#182A35" transform="translate(281,324)"/>
<path d="M0 0 C1.98 0.99 1.98 0.99 4 2 C4 2.66 4 3.32 4 4 C38.65 4.33 73.3 4.66 109 5 C109 5.33 109 5.66 109 6 C73.69 6 38.38 6 2 6 C1.34 4.02 0.68 2.04 0 0 Z " fill="#C5BA89" transform="translate(271,148)"/>
<path d="M0 0 C0.66 0 1.32 0 2 0 C2 12.21 2 24.42 2 37 C-1.96 38.98 -1.96 38.98 -6 41 C-7.7074998 42.28062485 -9.39371931 43.59450439 -11 45 C-11 44.01 -11 43.02 -11 42 C-10.34 42 -9.68 42 -9 42 C-8.67 40.35 -8.34 38.7 -8 37 C-5.36 36.67 -2.72 36.34 0 36 C0 24.12 0 12.24 0 0 Z " fill="#ACAA83" transform="translate(239,102)"/>
<path d="M0 0 C4 6 4 6 4 10 C-15.8 10 -35.6 10 -56 10 C-55.01 7.03 -54.02 4.06 -53 1 C-52 5 -52 5 -53 9 C-35.18 9 -17.36 9 1 9 C0.505 4.545 0.505 4.545 0 0 Z " fill="#B8B287" transform="translate(371,248)"/>
<path d="M0 0 C0.66 0.33 1.32 0.66 2 1 C0.71034824 2.37562854 -0.62689293 3.70766393 -2 5 C-2.66 5 -3.32 5 -4 5 C-4.268125 5.61875 -4.53625 6.2375 -4.8125 6.875 C-6 9 -6 9 -9 11 C-9.721875 11.12375 -10.44375 11.2475 -11.1875 11.375 C-15.13201076 12.25155795 -18.45210931 14.10720472 -22 16 C-22.66 15.34 -23.32 14.68 -24 14 C-23.17592651 13.52373169 -23.17592651 13.52373169 -22.33520508 13.0378418 C-19.82739288 11.5881492 -17.3199435 10.1378302 -14.8125 8.6875 C-13.94818359 8.18798828 -13.08386719 7.68847656 -12.19335938 7.17382812 C-11.35224609 6.68720703 -10.51113281 6.20058594 -9.64453125 5.69921875 C-8.83322754 5.23177246 -8.02192383 4.76432617 -7.18603516 4.28271484 C-5.43685097 3.25633404 -3.71849176 2.17748948 -2.01171875 1.08203125 C-1.34785156 0.72496094 -0.68398437 0.36789063 0 0 Z " fill="#EBDBA2" transform="translate(91,91)"/>
<path d="M0 0 C0.66 0.33 1.32 0.66 2 1 C0.40014695 5.04338736 -1.20564296 9.08439149 -2.8125 13.125 C-3.26431641 14.26710937 -3.71613281 15.40921875 -4.18164062 16.5859375 C-4.62314453 17.69453125 -5.06464844 18.803125 -5.51953125 19.9453125 C-5.92276611 20.96125488 -6.32600098 21.97719727 -6.74145508 23.02392578 C-8.03715593 26.08786243 -9.48183251 29.04082728 -11 32 C-12.00746004 28.86567988 -11.78454137 27.13816549 -11 24 C-11.37907282 21.81296615 -11.37907282 21.81296615 -12 20 C-11.25363281 19.51015625 -10.50726563 19.0203125 -9.73828125 18.515625 C-6.2424171 15.30401799 -4.92587577 12.09402069 -3.1875 7.75 C-2.87619141 7.00492188 -2.56488281 6.25984375 -2.24414062 5.4921875 C-1.48350174 3.66665418 -0.73999681 1.83399785 0 0 Z " fill="#162B40" transform="translate(135,224)"/>
<path d="M0 0 C0.33 0 0.66 0 1 0 C1.01981934 0.94842773 1.03963867 1.89685547 1.06005859 2.87402344 C1.13825761 6.40032364 1.22495366 9.92620361 1.31738281 13.45214844 C1.35561266 14.97680658 1.390476 16.50155307 1.421875 18.02636719 C1.46765662 20.22102381 1.52562766 22.4150754 1.5859375 24.609375 C1.59748871 25.2886908 1.60903992 25.96800659 1.62094116 26.66790771 C1.73099388 30.21469541 1.87756791 33.07552232 4 36 C4.99 36.33 5.98 36.66 7 37 C7.33 36.34 7.66 35.68 8 35 C8 35.66 8 36.32 8 37 C8.66 37 9.32 37 10 37 C10.185625 37.8353125 10.185625 37.8353125 10.375 38.6875 C11.05976855 41.22114364 11.99133763 43.57921032 13 46 C12.56429688 45.60167969 12.12859375 45.20335937 11.6796875 44.79296875 C11.08414062 44.26316406 10.48859375 43.73335937 9.875 43.1875 C9.29492188 42.66542969 8.71484375 42.14335937 8.1171875 41.60546875 C5.50522802 39.52250145 5.50522802 39.52250145 0 37 C0 24.79 0 12.58 0 0 Z " fill="#CBC189" transform="translate(258,102)"/>
<path d="M0 0 C0.33 0 0.66 0 1 0 C1 5.61 1 11.22 1 17 C7.93 17 14.86 17 22 17 C21.01 20.3 20.02 23.6 19 27 C18 24 18 24 19 19 C12.73 19 6.46 19 0 19 C0 12.73 0 6.46 0 0 Z " fill="#BBB58E" transform="translate(118,154)"/>
<path d="M0 0 C2.97 0 5.94 0 9 0 C9 0.66 9 1.32 9 2 C9.68513672 1.99476318 10.37027344 1.98952637 11.07617188 1.98413086 C14.21743837 1.96318555 17.35869011 1.9502844 20.5 1.9375 C21.57765625 1.92912109 22.6553125 1.92074219 23.765625 1.91210938 C29.61328382 1.89428115 35.21863671 2.10894037 41 3 C41 3.33 41 3.66 41 4 C36.92904266 4.07513835 32.85836353 4.12905913 28.78686523 4.16479492 C27.40691074 4.17971942 26.02700228 4.20006661 24.6472168 4.22631836 C15.92563818 4.38788774 8.26865034 3.89625886 0 1 C0 0.67 0 0.34 0 0 Z " fill="#253D45" transform="translate(319,306)"/>
<path d="M0 0 C1.32 0.33 2.64 0.66 4 1 C4 3.31 4 5.62 4 8 C4.66 8 5.32 8 6 8 C6.83698386 10.45714547 7.66972424 12.91558857 8.5 15.375 C8.73847656 16.07367188 8.97695313 16.77234375 9.22265625 17.4921875 C11 22.7734375 11 22.7734375 11 25 C11.99 25.33 12.98 25.66 14 26 C14 28.31 14 30.62 14 33 C11.84696342 30.84696342 11.25775633 29.43954643 10.1875 26.625 C8.6689875 22.69839865 7.0845459 18.81202666 5.4375 14.9375 C3.37598137 10.01912377 1.60964552 5.0830911 0 0 Z " fill="#CDC08B" transform="translate(377,217)"/>
<path d="M0 0 C7.26 0 14.52 0 22 0 C22 0.33 22 0.66 22 1 C15.73 1 9.46 1 3 1 C3.78375 3.124375 4.5675 5.24875 5.375 7.4375 C5.81585938 8.63246094 6.25671875 9.82742187 6.7109375 11.05859375 C7.67085236 14.10196898 7.67085236 14.10196898 10 15 C10 15.66 10 16.32 10 17 C9.34 17 8.68 17 8 17 C7.67 17.66 7.34 18.32 7 19 C6.01761592 16.58459694 5.03899782 14.16778178 4.0625 11.75 C3.64581055 10.72712891 3.64581055 10.72712891 3.22070312 9.68359375 C1.92149685 6.45905769 0.8452266 3.38090641 0 0 Z " fill="#B5B089" transform="translate(358,171)"/>
<path d="M0 0 C0.33 0 0.66 0 1 0 C1.46188968 6.31249229 -0.53433566 10.80150349 -4 16 C-4.28875 17.134375 -4.5775 18.26875 -4.875 19.4375 C-6.03279349 23.10384605 -7.09580662 24.57983885 -10 27 C-7.58650007 17.64481454 -3.75743534 8.873724 0 0 Z " fill="#2C3E42" transform="translate(122,215)"/>
<path d="M0 0 C3.61007733 3.61007733 4.80997907 8.32148178 5.375 13.3125 C4.8584834 18.39157992 3.4808156 23.12564866 2 28 C1.06576355 24.98968256 0.95550089 24.13349732 2 21 C2.14209042 17.09251338 1.97647044 13.76638598 1 10 C1.33 9.34 1.66 8.68 2 8 C1.34 8 0.68 8 0 8 C0 5.36 0 2.72 0 0 Z " fill="#223441" transform="translate(392,255)"/>
<path d="M0 0 C1.98 0 3.96 0 6 0 C2.36352716 2.8757821 -1.53534041 5.23850588 -5.5 7.625 C-6.16386719 8.03234375 -6.82773437 8.4396875 -7.51171875 8.859375 C-8.15753906 9.24867188 -8.80335938 9.63796875 -9.46875 10.0390625 C-10.05076172 10.39178223 -10.63277344 10.74450195 -11.23242188 11.10791016 C-13.13142215 12.06632825 -14.92460323 12.55974706 -17 13 C-16.75 11.125 -16.75 11.125 -16 9 C-13.06004981 6.97244814 -11.72295997 7 -8 7 C-8 6.34 -8 5.68 -8 5 C-7.01 5 -6.02 5 -5 5 C-5 4.01 -5 3.02 -5 2 C-3.35 2 -1.7 2 0 2 C0 1.34 0 0.68 0 0 Z " fill="#EDDCAB" transform="translate(455,378)"/>
<path d="M0 0 C1.65 0 3.3 0 5 0 C4.72962375 7.35423405 3.73081346 12.62151248 0 19 C-1.08595765 15.69926029 -1.1069007 15.22270979 0.5 11.875 C0.995 10.92625 1.49 9.9775 2 9 C0.93453047 6.86906094 -0.29159719 5.63412443 -2 4 C-1.34 2.68 -0.68 1.36 0 0 Z " fill="#DECB84" transform="translate(132,173)"/>
<path d="M0 0 C2.37787997 3.56681996 2.10182231 4.54974196 1.625 8.6875 C1.12735527 13.50587187 0.90692093 18.15988814 1 23 C0.34 23 -0.32 23 -1 23 C-3.08719429 17.28649331 -2.9586728 13.44034021 -1.625 7.5625 C-1.47289062 6.83095703 -1.32078125 6.09941406 -1.1640625 5.34570312 C-0.79072194 3.56066858 -0.39741681 1.77982903 0 0 Z " fill="#D2C383" transform="translate(397,265)"/>
<path d="M0 0 C0.66 0 1.32 0 2 0 C1.84015625 0.57492187 1.6803125 1.14984375 1.515625 1.7421875 C-0.01425877 8.44122399 1.11727858 14.33717593 3.34375 20.73828125 C4 23 4 23 4 27 C3.01 27 2.02 27 1 27 C1.04125 26.0925 1.0825 25.185 1.125 24.25 C1.25383339 21.13481008 1.25383339 21.13481008 0.00390625 19.23828125 C-1.40906859 16.08795214 -1.22723224 13.37253259 -1.1875 9.9375 C-1.18105469 8.70902344 -1.17460937 7.48054688 -1.16796875 6.21484375 C-1 3 -1 3 0 0 Z " fill="#CCC08C" transform="translate(293,261)"/>
<path d="M0 0 C0.33 0 0.66 0 1 0 C1 3.3 1 6.6 1 10 C-5.6 10 -12.2 10 -19 10 C-19 9.34 -19 8.68 -19 8 C-13.06 8 -7.12 8 -1 8 C-0.67 5.36 -0.34 2.72 0 0 Z " fill="#082233" transform="translate(378,161)"/>
<path d="M0 0 C2.8168905 2.8168905 3.85281912 6.22033704 5.25 9.875 C5.54390625 10.59558594 5.8378125 11.31617188 6.140625 12.05859375 C8.19283351 17.41604192 8.19283351 17.41604192 7.171875 20.5078125 C6.78515625 21.00023437 6.3984375 21.49265625 6 22 C6 20.02 6 18.04 6 16 C5.34 16 4.68 16 4 16 C4 15.34 4 14.68 4 14 C3.01 14 2.02 14 1 14 C1.33 11.69 1.66 9.38 2 7 C1.34 7 0.68 7 0 7 C0 4.69 0 2.38 0 0 Z " fill="#C5B886" transform="translate(347,190)"/>
<path d="M0 0 C-0.50789063 0.31453125 -1.01578125 0.6290625 -1.5390625 0.953125 C-2.22742188 1.38109375 -2.91578125 1.8090625 -3.625 2.25 C-4.72134766 2.930625 -4.72134766 2.930625 -5.83984375 3.625 C-7.65653331 4.78137382 -9.42815987 6.00811285 -11.1875 7.25 C-13.91697434 8.94833959 -15.83745937 9.6279364 -19 10 C-14.61919671 5.0350896 -6.98894849 -2.74392897 0 0 Z " fill="#152C3B" transform="translate(238,313)"/>
<path d="M0 0 C4.48525648 0.656379 8.66914029 1.70074209 13 3 C13 3.66 13 4.32 13 5 C13.99 5.33 14.98 5.66 16 6 C16.6875 8.0625 16.6875 8.0625 17 10 C12.97683781 8.51463956 9.38707358 6.60123107 5.6875 4.4375 C4.61886719 3.81746094 3.55023438 3.19742187 2.44921875 2.55859375 C1.64097656 2.04425781 0.83273438 1.52992188 0 1 C0 0.67 0 0.34 0 0 Z " fill="#EDDCA8" transform="translate(203,473)"/>
<path d="M0 0 C1.83891931 6.20469895 -1.55741003 11.37496498 -4.1953125 16.94921875 C-5.18263416 19.09828384 -5.18263416 19.09828384 -5 22 C-5.66 22 -6.32 22 -7 22 C-7 22.66 -7 23.32 -7 24 C-7.66 24 -8.32 24 -9 24 C-6.80148049 15.63019764 -3.50929804 7.88172441 0 0 Z " fill="#2D3D44" transform="translate(319,202)"/>
<path d="M0 0 C0.66 0.33 1.32 0.66 2 1 C1.67 1.66 1.34 2.32 1 3 C0.01 3 -0.98 3 -2 3 C-2.66 4.98 -3.32 6.96 -4 9 C-4.66 9 -5.32 9 -6 9 C-6 8.34 -6 7.68 -6 7 C-9.3 7 -12.6 7 -16 7 C-12.53462385 4.68974923 -9.3553358 3.87110385 -5.375 2.78125 C-2.77588035 2.04336868 -2.77588035 2.04336868 0 0 Z " fill="#CCBF88" transform="translate(376,303)"/>
<path d="M0 0 C3 1 3 1 3.90722656 2.62646484 C4.14924805 3.31434082 4.39126953 4.0022168 4.640625 4.7109375 C4.90617187 5.46117187 5.17171875 6.21140625 5.4453125 6.984375 C5.71085937 7.77328125 5.97640625 8.5621875 6.25 9.375 C6.53101563 10.15617188 6.81203125 10.93734375 7.1015625 11.7421875 C9.13058036 17.60825893 9.13058036 17.60825893 8 21 C7.05062944 18.86391624 6.10185949 16.72759663 5.15625 14.58984375 C4.39703192 12.88929784 3.62652115 11.19373992 2.84375 9.50390625 C2.4828125 8.71886719 2.121875 7.93382812 1.75 7.125 C1.41484375 6.40570313 1.0796875 5.68640625 0.734375 4.9453125 C0 3 0 3 0 0 Z " fill="#1B313C" transform="translate(349,193)"/>
<path d="M0 0 C0.33 0 0.66 0 1 0 C1.10957031 0.845625 1.21914062 1.69125 1.33203125 2.5625 C2.25095652 9.13692471 3.44162497 14.88214667 6 21 C6.71484375 23.08984375 6.71484375 23.08984375 7 25 C6.34 25.66 5.68 26.32 5 27 C3.72746564 23.35206816 2.67170806 19.8063457 2 16 C1.34 16 0.68 16 0 16 C0 10.72 0 5.44 0 0 Z " fill="#B9B083" transform="translate(101,265)"/>
<path d="M0 0 C-0.25 1.86328125 -0.25 1.86328125 -1 4 C-2.8125 5.23046875 -2.8125 5.23046875 -5 6.1875 C-7.70697055 7.28954461 -7.70697055 7.28954461 -10 9 C-11.99958364 9.04080783 -14.00045254 9.04254356 -16 9 C-11.97806144 5.49702126 -5.60566856 0 0 0 Z " fill="#ECDAA6" transform="translate(167,48)"/>
<path d="M0 0 C-1.48780326 4.01706879 -3.67271349 5.31247123 -7.375 7.3125 C-8.33148438 7.84488281 -9.28796875 8.37726562 -10.2734375 8.92578125 C-13.14727583 10.05802414 -14.19191053 10.13787512 -17 9 C-14.87562549 7.68647829 -12.75053408 6.37414287 -10.625 5.0625 C-10.02171875 4.68931641 -9.4184375 4.31613281 -8.796875 3.93164062 C-2.42124155 0 -2.42124155 0 0 0 Z " fill="#EDDDAB" transform="translate(222,16)"/>
<path d="M0 0 C-1.55961362 0.96302356 -3.12283225 1.92021004 -4.6875 2.875 C-5.55761719 3.40867187 -6.42773438 3.94234375 -7.32421875 4.4921875 C-9.83391082 5.90640814 -12.30299069 6.99894789 -15 8 C-15 7.01 -15 6.02 -15 5 C-14.34 5 -13.68 5 -13 5 C-13 4.34 -13 3.68 -13 3 C-11.35 3 -9.7 3 -8 3 C-8 2.34 -8 1.68 -8 1 C-3.375 -1.125 -3.375 -1.125 0 0 Z " fill="#EBDBA7" transform="translate(355,440)"/>
<path d="M0 0 C2.23495428 2.23495428 3.0024791 4.02414536 4.1875 6.9375 C4.55230469 7.81277344 4.91710937 8.68804687 5.29296875 9.58984375 C6 12 6 12 5 15 C3 13 3 13 2 10 C1.01 10.33 0.02 10.66 -1 11 C-1 7.21293268 -0.5745952 3.73486879 0 0 Z " fill="#1D3340" transform="translate(378,221)"/>
<path d="M0 0 C0 0.66 0 1.32 0 2 C-0.886875 2.165 -1.77375 2.33 -2.6875 2.5 C-6.82067296 4.37162549 -7.84161928 6.42330011 -9.921875 10.3203125 C-10.45554688 11.15175781 -10.45554688 11.15175781 -11 12 C-11.66 12 -12.32 12 -13 12 C-12.9158797 9.13990965 -12.43181261 7.45351173 -10.4453125 5.3671875 C-4.19655797 0 -4.19655797 0 0 0 Z " fill="#1D303C" transform="translate(241,139)"/>
<path d="M0 0 C0.66 0 1.32 0 2 0 C2 0.99 2 1.98 2 3 C2.66 3 3.32 3 4 3 C4.70005949 5.07914664 5.38462244 7.16351586 6.0625 9.25 C6.44535156 10.41015625 6.82820312 11.5703125 7.22265625 12.765625 C7.98615523 15.94239464 7.91066802 17.01550543 7 20 C5.82685974 17.23174812 4.66129785 14.46071514 3.5 11.6875 C2.99919922 10.50897461 2.99919922 10.50897461 2.48828125 9.30664062 C2.17246094 8.54931641 1.85664063 7.79199219 1.53125 7.01171875 C1.23798828 6.31522217 0.94472656 5.61872559 0.64257812 4.90112305 C0 3 0 3 0 0 Z " fill="#182E3B" transform="translate(175,235)"/>
<path d="M0 0 C7.5273523 4.93654267 7.5273523 4.93654267 9.5 9.375 C9.665 10.24125 9.83 11.1075 10 12 C9.01 11.67 8.02 11.34 7 11 C7 9.68 7 8.36 7 7 C5.02 7 3.04 7 1 7 C0.67 4.69 0.34 2.38 0 0 Z " fill="#20333F" transform="translate(315,366)"/>
<path d="M0 0 C4.30764815 1.56641751 8.06171464 3.68336156 12 6 C11.34 6.66 10.68 7.32 10 8 C5.49197399 6.74194623 2.5087188 5.09592835 -1 2 C-0.67 1.34 -0.34 0.68 0 0 Z " fill="#EDDAA4" transform="translate(366,67)"/>
<path d="M0 0 C0.66 0 1.32 0 2 0 C0.5129879 4.59621922 -1.79812128 7.46972347 -5 11 C-5.33 11 -5.66 11 -6 11 C-6.3125 8.8125 -6.3125 8.8125 -6 6 C-3.5625 3.25 -3.5625 3.25 -1 1 C-0.67 0.67 -0.34 0.34 0 0 Z " fill="#183041" transform="translate(271,172)"/>
<path d="M0 0 C4.51451314 1.3489311 8.32277281 3.16618294 12.375 5.5625 C13.43460937 6.18253906 14.49421875 6.80257812 15.5859375 7.44140625 C16.38257813 7.95574219 17.17921875 8.47007813 18 9 C18 9.33 18 9.66 18 10 C13.70793875 10.36789096 11.49256513 9.48155943 8 7 C7.505 6.484375 7.01 5.96875 6.5 5.4375 C4.5540185 3.57260106 2.51952188 2.88523742 0 2 C0 1.34 0 0.68 0 0 Z " fill="#EEE1AF" transform="translate(417,97)"/>
<path d="M0 0 C1.65 0 3.3 0 5 0 C1.71012585 3.68465905 -1.63720714 5.77894182 -6 8 C-6.99 8 -7.98 8 -9 8 C-9 7.34 -9 6.68 -9 6 C-8.01 6 -7.02 6 -6 6 C-6 5.34 -6 4.68 -6 4 C-5.01 4 -4.02 4 -3 4 C-3 3.34 -3 2.68 -3 2 C-2.01 2 -1.02 2 0 2 C0 1.34 0 0.68 0 0 Z " fill="#EBDEAE" transform="translate(412,403)"/>
<path d="M0 0 C3.89945314 1.04985277 7.39905186 2.19952593 11 4 C11.99 4 12.98 4 14 4 C13.67 5.32 13.34 6.64 13 8 C8.27626146 6.37621488 4.05818166 3.89006982 0 1 C0 0.67 0 0.34 0 0 Z " fill="#ECDBA4" transform="translate(61,390)"/>
<path d="M0 0 C0.66 0 1.32 0 2 0 C1.34496718 4.05819183 0.05440879 7.53971282 -1.5625 11.3125 C-2.01753906 12.38113281 -2.47257813 13.44976562 -2.94140625 14.55078125 C-3.46541016 15.76314453 -3.46541016 15.76314453 -4 17 C-5.25127906 13.45332822 -4.72285053 11.27746562 -3.5625 7.75 C-3.27503906 6.85796875 -2.98757812 5.9659375 -2.69140625 5.046875 C-2.46324219 4.37140625 -2.23507813 3.6959375 -2 3 C-1.34 3 -0.68 3 0 3 C0 2.01 0 1.02 0 0 Z " fill="#1F333D" transform="translate(143,204)"/>
<path d="M0 0 C2.31 0.33 4.62 0.66 7 1 C7 2.65 7 4.3 7 6 C8.32 6.33 9.64 6.66 11 7 C11 7.66 11 8.32 11 9 C6.56029258 7.60466338 4.09484321 5.43871468 1 2 C0.67 1.34 0.34 0.68 0 0 Z " fill="#1F3341" transform="translate(228,177)"/>
<path d="M0 0 C-0.53109375 0.32613281 -1.0621875 0.65226563 -1.609375 0.98828125 C-5.18236731 3.19858124 -8.70082313 5.38815164 -12 8 C-12 7.01 -12 6.02 -12 5 C-11.34 5 -10.68 5 -10 5 C-9.67 3.35 -9.34 1.7 -9 0 C-5.5657338 -0.85856655 -3.38317487 -0.97591583 0 0 Z " fill="#D1C58B" transform="translate(240,139)"/>
<path d="M0 0 C1.32 0.33 2.64 0.66 4 1 C2.21475351 2.19713017 0.4215972 3.38247279 -1.375 4.5625 C-2.87160156 5.55443359 -2.87160156 5.55443359 -4.3984375 6.56640625 C-5.25695312 7.03949219 -6.11546875 7.51257813 -7 8 C-7.66 7.67 -8.32 7.34 -9 7 C-8 4 -8 4 -5 2 C-2.3125 1.875 -2.3125 1.875 0 2 C0 1.34 0 0.68 0 0 Z " fill="#EEDFA9" transform="translate(265,489)"/>
<path d="M0 0 C-2.98418329 3.32851213 -5.84562769 5.3205729 -10 7 C-10.99 6.67 -11.98 6.34 -13 6 C-5.25 -0.28378378 -5.25 -0.28378378 0 0 Z " fill="#EADBA8" transform="translate(403,411)"/>
<path d="M0 0 C0 0.66 0 1.32 0 2 C-0.66 2.66 -1.32 3.32 -2 4 C-2.69748583 5.31747324 -3.36959957 6.64914193 -4 8 C-4.99 8 -5.98 8 -7 8 C-7 8.66 -7 9.32 -7 10 C-7.99 10.33 -8.98 10.66 -10 11 C-8.73396788 6.69549079 -5.08358566 0 0 0 Z " fill="#243540" transform="translate(184,366)"/>
<path d="M0 0 C0.6875 1.625 0.6875 1.625 1 4 C-0.47640245 7.61718599 -2.01906878 10.4449161 -5 13 C-5.99 12.34 -6.98 11.68 -8 11 C-7.38511719 10.31164062 -7.38511719 10.31164062 -6.7578125 9.609375 C-6.21898437 8.99578125 -5.68015625 8.3821875 -5.125 7.75 C-4.59132812 7.14671875 -4.05765625 6.5434375 -3.5078125 5.921875 C-2.0202513 4.02581254 -0.99677564 2.18709995 0 0 Z " fill="#CABE86" transform="translate(200,286)"/>
<path d="M0 0 C0.66 0 1.32 0 2 0 C0.45730076 4.72065967 -1.07794619 9.41664092 -3 14 C-3.33 14 -3.66 14 -4 14 C-3.85904936 12.3745692 -3.71207913 10.74965949 -3.5625 9.125 C-3.48128906 8.22007812 -3.40007812 7.31515625 -3.31640625 6.3828125 C-3 4 -3 4 -2 2 C-1.34 2 -0.68 2 0 2 C0 1.34 0 0.68 0 0 Z " fill="#D8CB8C" transform="translate(125,203)"/>
<path d="M0 0 C0.99 0.33 1.98 0.66 3 1 C3.99 0.67 4.98 0.34 6 0 C5.54917531 1.46067199 5.08906463 2.91848032 4.625 4.375 C4.36976563 5.18710938 4.11453125 5.99921875 3.8515625 6.8359375 C3 9 3 9 1 11 C1.020625 9.9275 1.04125 8.855 1.0625 7.75 C1.0142016 4.85209576 0.86844115 2.71387859 0 0 Z " fill="#162C40" transform="translate(313,247)"/>
<path d="M0 0 C0.66 0.33 1.32 0.66 2 1 C1.66226563 1.79664063 1.32453125 2.59328125 0.9765625 3.4140625 C0.53054687 4.47367188 0.08453125 5.53328125 -0.375 6.625 C-0.81585938 7.66914063 -1.25671875 8.71328125 -1.7109375 9.7890625 C-2.93136322 12.82903202 -3.9981391 15.88205905 -5 19 C-6.2942471 16.41150579 -5.81710662 15.29019914 -5.1875 12.5 C-5.01605469 11.7059375 -4.84460938 10.911875 -4.66796875 10.09375 C-4 8 -4 8 -2 6 C-1.28591666 4.01643517 -0.61382258 2.01684563 0 0 Z " fill="#CBBF8B" transform="translate(108,245)"/>
<path d="M0 0 C0.66 0.33 1.32 0.66 2 1 C2.625 3.5625 2.625 3.5625 3 6 C2.01 6.33 1.02 6.66 0 7 C-0.99 8.485 -0.99 8.485 -2 10 C-2.66 10 -3.32 10 -4 10 C-3.52449439 8.51965236 -3.04448784 7.04074979 -2.5625 5.5625 C-2.29566406 4.73878906 -2.02882812 3.91507813 -1.75390625 3.06640625 C-1 1 -1 1 0 0 Z " fill="#C3B88A" transform="translate(153,186)"/>
<path d="M0 0 C3.3 0.33 6.6 0.66 10 1 C10.66 2.65 11.32 4.3 12 6 C12.66 6 13.32 6 14 6 C13.67 6.66 13.34 7.32 13 8 C11.96875 7.21625 10.9375 6.4325 9.875 5.625 C6.71901262 3.35603148 3.78184481 2.01464129 0 1 C0 0.67 0 0.34 0 0 Z " fill="#C8BF88" transform="translate(307,362)"/>
<path d="M0 0 C2.475 0.495 2.475 0.495 5 1 C5 2.32 5 3.64 5 5 C7.31 5.66 9.62 6.32 12 7 C11.67 7.99 11.34 8.98 11 10 C5.62704618 7.31352309 2.96852125 5.22459741 0 0 Z " fill="#1E323E" transform="translate(111,293)"/>
<path d="M0 0 C2.23495428 2.23495428 3.0024791 4.02414536 4.1875 6.9375 C4.55230469 7.81277344 4.91710937 8.68804687 5.29296875 9.58984375 C6 12 6 12 5 15 C3 14 3 14 2.1484375 11.85546875 C1.89320313 10.97503906 1.63796875 10.09460938 1.375 9.1875 C1.11460937 8.31480469 0.85421875 7.44210938 0.5859375 6.54296875 C0 4 0 4 0 0 Z " fill="#2C3C45" transform="translate(186,220)"/>
<path d="M0 0 C-1.28185372 3.84556115 -2.78579777 4.42068027 -6.2109375 6.28125 C-8 7 -8 7 -10.4375 6.75 C-10.953125 6.5025 -11.46875 6.255 -12 6 C-10.68 5.67 -9.36 5.34 -8 5 C-8 4.34 -8 3.68 -8 3 C-2.25 0 -2.25 0 0 0 Z " fill="#EFDEAC" transform="translate(198,30)"/>
<path d="M0 0 C1.98270912 0.95098266 3.96108379 1.91100703 5.9375 2.875 C7.03964844 3.40867187 8.14179688 3.94234375 9.27734375 4.4921875 C12 6 12 6 13 8 C11.68 8 10.36 8 9 8 C9 7.34 9 6.68 9 6 C6.69 5.67 4.38 5.34 2 5 C1.34 3.35 0.68 1.7 0 0 Z " fill="#EDDFAC" transform="translate(265,8)"/>
<path d="M0 0 C4.455 0.99 4.455 0.99 9 2 C9 2.99 9 3.98 9 5 C10.65 5 12.3 5 14 5 C14 5.99 14 6.98 14 8 C8.76481294 6.56032356 4.36973991 4.18303389 0 1 C0 0.67 0 0.34 0 0 Z " fill="#EFE0B0" transform="translate(86,405)"/>
<path d="M0 0 C3.2626876 3.08632611 6.02235218 5.93483504 8 10 C7.67 10.66 7.34 11.32 7 12 C5.68 11.67 4.36 11.34 3 11 C3.33 9.68 3.66 8.36 4 7 C3.01 7.33 2.02 7.66 1 8 C0.67 5.36 0.34 2.72 0 0 Z " fill="#2A3B44" transform="translate(281,324)"/>
<path d="M0 0 C3.30694282 3.30694282 3.28121076 7.48189621 4 12 C2.66104368 10.33784732 1.32869858 8.67036393 0 7 C-0.5775 6.278125 -1.155 5.55625 -1.75 4.8125 C-3 3 -3 3 -3 1 C-2.01 0.67 -1.02 0.34 0 0 Z " fill="#D8C78C" transform="translate(284,321)"/>
<path d="M0 0 C0.33 0 0.66 0 1 0 C1.383042 5.23490729 0.3382052 8.41352057 -2 13 C-2.99 13.495 -2.99 13.495 -4 14 C-3.46148032 8.72250715 -2.22656164 4.74354436 0 0 Z " fill="#213842" transform="translate(122,215)"/>
<path d="M0 0 C1.79068573 2.6860286 2.66055791 4.6626589 3.625 7.6875 C3.88539063 8.49574219 4.14578125 9.30398437 4.4140625 10.13671875 C4.60742188 10.75160156 4.80078125 11.36648437 5 12 C4.01 12 3.02 12 2 12 C-0.60018816 8.09971775 -0.15085514 4.52565431 0 0 Z " fill="#243542" transform="translate(371,204)"/>
<path d="M0 0 C0.66 0 1.32 0 2 0 C2.33 0.66 2.66 1.32 3 2 C3.66 1.67 4.32 1.34 5 1 C5 3.97 5 6.94 5 10 C5.66 10.33 6.32 10.66 7 11 C6.34 11.66 5.68 12.32 5 13 C3.35 8.71 1.7 4.42 0 0 Z " fill="#D0C18A" transform="translate(366,191)"/>
<path d="M0 0 C4.77609498 1.64178265 8.79382904 4.26546702 13 7 C12.01 7.66 11.02 8.32 10 9 C9.67 8.34 9.34 7.68 9 7 C7.02111039 6.27306096 5.02045442 5.60183749 3 5 C3 4.34 3 3.68 3 3 C2.34 3 1.68 3 1 3 C0.67 2.01 0.34 1.02 0 0 Z " fill="#EFE3B4" transform="translate(449,115)"/>
<path d="M0 0 C0.33 0 0.66 0 1 0 C1 2.97 1 5.94 1 9 C-0.65 9.33 -2.3 9.66 -4 10 C-2.8905928 6.51329166 -1.73662334 3.22515763 0 0 Z " fill="#213741" transform="translate(212,330)"/>
<path d="M0 0 C1.98 1.32 3.96 2.64 6 4 C5.67 4.66 5.34 5.32 5 6 C2.03 5.505 2.03 5.505 -1 5 C-1 5.66 -1 6.32 -1 7 C-1.66 7 -2.32 7 -3 7 C-3 6.01 -3 5.02 -3 4 C-2.01 3.34 -1.02 2.68 0 2 C0 1.34 0 0.68 0 0 Z " fill="#132C3F" transform="translate(275,319)"/>
<path d="M0 0 C1.37095624 3.69037278 0.60010967 5.70883835 -0.9375 9.25 C-1.31777344 10.14203125 -1.69804687 11.0340625 -2.08984375 11.953125 C-2.39019531 12.62859375 -2.69054687 13.3040625 -3 14 C-3.66 14 -4.32 14 -5 14 C-3.45730076 9.27934033 -1.92205381 4.58335908 0 0 Z " fill="#BCB382" transform="translate(337,203)"/>
<path d="M0 0 C0.66 0.33 1.32 0.66 2 1 C2 4 2 4 1 6 C-1.97 6 -4.94 6 -8 6 C-6.32169152 2.64338305 -3.29210653 1.67493139 0 0 Z " fill="#EEDEA5" transform="translate(149,57)"/>
<path d="M0 0 C1.305239 3.91571701 0.32239848 5.03892997 -1.4375 8.6875 C-1.91058594 9.68136719 -2.38367188 10.67523438 -2.87109375 11.69921875 C-3.42990234 12.83810547 -3.42990234 12.83810547 -4 14 C-4.33 14 -4.66 14 -5 14 C-5.1875 11.1875 -5.1875 11.1875 -5 8 C-3.625 6.4375 -3.625 6.4375 -2 5 C-0.80972016 2.40084462 -0.80972016 2.40084462 0 0 Z " fill="#182D3C" transform="translate(202,278)"/>
<path d="M0 0 C1.32 0.33 2.64 0.66 4 1 C4 1.66 4 2.32 4 3 C4.556875 3.103125 5.11375 3.20625 5.6875 3.3125 C8.44176578 4.13133577 10.58727657 5.45853781 13 7 C12.01 7.495 12.01 7.495 11 8 C8.65234375 7.109375 8.65234375 7.109375 5.9375 5.75 C5.03902344 5.31171875 4.14054687 4.8734375 3.21484375 4.421875 C1 3 1 3 0 0 Z " fill="#EEE2B4" transform="translate(435,107)"/>
<path d="M0 0 C4.19360449 0.67097672 7.40334352 2.8558394 11 5 C11 5.33 11 5.66 11 6 C5.92387682 6.61528766 3.17017994 4.61658349 -1 2 C-0.67 1.34 -0.34 0.68 0 0 Z " fill="#EEDDAC" transform="translate(355,61)"/>
<path d="M0 0 C0.66 0 1.32 0 2 0 C0.89210592 3.32368224 0.51563783 3.61563093 -2.375 5.25 C-3.28378906 5.78367187 -3.28378906 5.78367187 -4.2109375 6.328125 C-6 7 -6 7 -9 6 C-8.34 5.34 -7.68 4.68 -7 4 C-6.01 4 -5.02 4 -4 4 C-4 3.34 -4 2.68 -4 2 C-2.68 2 -1.36 2 0 2 C0 1.34 0 0.68 0 0 Z " fill="#EEDEA7" transform="translate(286,477)"/>
<path d="M0 0 C2.64 0.33 5.28 0.66 8 1 C8.66 2.65 9.32 4.3 10 6 C6.40992874 4.66654496 3.20429093 3.1056769 0 1 C0 0.67 0 0.34 0 0 Z " fill="#ECDCA9" transform="translate(174,456)"/>
<path d="M0 0 C4.24465971 0.27682563 6.81617671 1.18354094 10 4 C7.69 4 5.38 4 3 4 C3 3.34 3 2.68 3 2 C1.35 2 -0.3 2 -2 2 C-1.34 1.34 -0.68 0.68 0 0 Z " fill="#ECDDA2" transform="translate(248,0)"/>
<path d="M0 0 C0.99 0.99 1.98 1.98 3 3 C2.875 5.0625 2.875 5.0625 2 7 C1.01 7.66 0.02 8.32 -1 9 C-0.67 6.03 -0.34 3.06 0 0 Z " fill="#142C46" transform="translate(130,195)"/>
<path d="M0 0 C0.66 0.33 1.32 0.66 2 1 C1 4 1 4 -1.3125 5.25 C-4.09873015 6.0275526 -5.33438378 5.98726527 -8 5 C-6.68 4.67 -5.36 4.34 -4 4 C-4 3.34 -4 2.68 -4 2 C-2.125 0.9375 -2.125 0.9375 0 0 Z " fill="#ECDEA8" transform="translate(65,106)"/>
<path d="M0 0 C1.31602523 0.61754259 2.62773556 1.24428742 3.9375 1.875 C4.66839844 2.22304688 5.39929688 2.57109375 6.15234375 2.9296875 C8 4 8 4 9 6 C5.26512223 5.5020163 3.18762365 5.12508244 0 3 C0 2.01 0 1.02 0 0 Z " fill="#EDDFAB" transform="translate(279,16)"/>
<path d="M0 0 C6.15234375 0.5859375 6.15234375 0.5859375 8 1 C8.33 1.66 8.66 2.32 9 3 C5.7 3 2.4 3 -1 3 C-0.67 2.01 -0.34 1.02 0 0 Z " fill="#1B3641" transform="translate(257,311)"/>
<path d="M0 0 C0.33 1.32 0.66 2.64 1 4 C-0.1875 5.8125 -0.1875 5.8125 -2 7 C-3.32 6.67 -4.64 6.34 -6 6 C-4.02 4.02 -2.04 2.04 0 0 Z " fill="#D4C68A" transform="translate(387,294)"/>
<path d="M0 0 C0.66 0 1.32 0 2 0 C2 0.66 2 1.32 2 2 C2.66 2 3.32 2 4 2 C4.33 5.3 4.66 8.6 5 12 C3.20931427 9.3139714 2.33944209 7.3373411 1.375 4.3125 C1.11460937 3.50425781 0.85421875 2.69601563 0.5859375 1.86328125 C0.39257812 1.24839844 0.19921875 0.63351563 0 0 Z " fill="#D3C68D" transform="translate(199,250)"/>
<path d="M0 0 C1.2380014 3.57644848 0.74926071 6.33694766 0 10 C-0.66 10 -1.32 10 -2 10 C-2 10.66 -2 11.32 -2 12 C-2.66 12 -3.32 12 -4 12 C-2.66666667 8 -1.33333333 4 0 0 Z " fill="#293E43" transform="translate(329,177)"/>
<path d="M0 0 C0 1.32 0 2.64 0 4 C-4.455 4.495 -4.455 4.495 -9 5 C-4 0 -4 0 0 0 Z " fill="#EEDDAC" transform="translate(181,40)"/>
<path d="M0 0 C4.50802601 1.25805377 7.4912812 2.90407165 11 6 C9.68 6 8.36 6 7 6 C7 5.34 7 4.68 7 4 C4.03 3.505 4.03 3.505 1 3 C0.67 2.01 0.34 1.02 0 0 Z " fill="#EEE1B0" transform="translate(319,40)"/>
<path d="M0 0 C2.31 0.33 4.62 0.66 7 1 C7 1.99 7 2.98 7 4 C7.99 4 8.98 4 10 4 C10 4.66 10 5.32 10 6 C6.00499382 4.6302836 3.19990508 2.74277578 0 0 Z " fill="#EDDEAC" transform="translate(143,438)"/>
<path d="M0 0 C-2.64 1.65 -5.28 3.3 -8 5 C-8 3.35 -8 1.7 -8 0 C-4.71303767 -0.79953138 -3.28976808 -1.09658936 0 0 Z " fill="#C8BD8B" transform="translate(228,316)"/>
<path d="M0 0 C-3.1254959 2.64465038 -6.08788267 3.84414715 -10 5 C-10 4.01 -10 3.02 -10 2 C-6.49223216 0.39644899 -3.85645121 -0.22036864 0 0 Z " fill="#25393E" transform="translate(185,303)"/>
<path d="M0 0 C0.66 0 1.32 0 2 0 C3.25664978 2.90600261 4 4.79604584 4 8 C4.66 8 5.32 8 6 8 C5.67 9.65 5.34 11.3 5 13 C3.09610151 10.14415227 2.30537823 8.0688238 1.375 4.8125 C0.98441406 3.46091797 0.98441406 3.46091797 0.5859375 2.08203125 C0.39257812 1.39496094 0.19921875 0.70789063 0 0 Z " fill="#293840" transform="translate(365,232)"/>
<path d="M0 0 C2.97 0 5.94 0 9 0 C9 1.65 9 3.3 9 5 C8.67 4.01 8.34 3.02 8 2 C7.4225 2.226875 6.845 2.45375 6.25 2.6875 C4 3 4 3 1.75 1.5625 C1.1725 1.046875 0.595 0.53125 0 0 Z " fill="#072040" transform="translate(370,155)"/>
<path d="M0 0 C0.66 0.33 1.32 0.66 2 1 C0.9375 2.9375 0.9375 2.9375 -1 5 C-4.6875 5.75 -4.6875 5.75 -8 6 C-5.63404067 3.38499232 -3.13950774 1.61000397 0 0 Z " fill="#EDDBAA" transform="translate(139,63)"/>
<path d="M0 0 C2.31 0.33 4.62 0.66 7 1 C2.25 5 2.25 5 0 5 C0 3.35 0 1.7 0 0 Z " fill="#EEDCA8" transform="translate(299,467)"/>
<path d="M0 0 C1.32 0.66 2.64 1.32 4 2 C0.04 3.98 0.04 3.98 -4 6 C-4 4.68 -4 3.36 -4 2 C-2.68 2 -1.36 2 0 2 C0 1.34 0 0.68 0 0 Z " fill="#ECDCAA" transform="translate(319,457)"/>
<path d="M0 0 C2.6486859 3.19668988 4.93992341 6.39486597 7 10 C6.34 10 5.68 10 5 10 C5 9.34 5 8.68 5 8 C4.360625 7.79375 3.72125 7.5875 3.0625 7.375 C1 6 1 6 0.25 2.875 C0.1675 1.92625 0.085 0.9775 0 0 Z " fill="#BFB889" transform="translate(298,287)"/>
<path d="M0 0 C0.66 0 1.32 0 2 0 C0.66666667 4 -0.66666667 8 -2 12 C-2.33 12 -2.66 12 -3 12 C-2.88541307 10.56163249 -2.75790884 9.12429034 -2.625 7.6875 C-2.55539062 6.88699219 -2.48578125 6.08648437 -2.4140625 5.26171875 C-2 3 -2 3 0 0 Z " fill="#203138" transform="translate(325,228)"/>
<path d="M0 0 C0.66 0 1.32 0 2 0 C2.33 1.32 2.66 2.64 3 4 C2.01 4 1.02 4 0 4 C0 5.32 0 6.64 0 8 C-0.99 8.33 -1.98 8.66 -3 9 C-2.01 6.03 -1.02 3.06 0 0 Z " fill="#ADA986" transform="translate(344,186)"/>
<path d="M0 0 C-0.5625 1.9375 -0.5625 1.9375 -2 4 C-5.625 4.75 -5.625 4.75 -9 5 C-2.87096774 0 -2.87096774 0 0 0 Z " fill="#ECDFAA" transform="translate(57,112)"/>
<path d="M0 0 C0.66 0.66 1.32 1.32 2 2 C0.68 2.33 -0.64 2.66 -2 3 C-2 3.66 -2 4.32 -2 5 C-3.32 4.67 -4.64 4.34 -6 4 C-5.34 3.67 -4.68 3.34 -4 3 C-4 2.34 -4 1.68 -4 1 C-2.125 0.375 -2.125 0.375 0 0 Z " fill="#EEDBA9" transform="translate(312,462)"/>
<path d="M0 0 C1.65 0.33 3.3 0.66 5 1 C0.25 5 0.25 5 -2 5 C-2 4.01 -2 3.02 -2 2 C-1.34 2 -0.68 2 0 2 C0 1.34 0 0.68 0 0 Z " fill="#EDDCA5" transform="translate(325,453)"/>
<path d="M0 0 C2.97 0 5.94 0 9 0 C9 0.66 9 1.32 9 2 C9.66 2.33 10.32 2.66 11 3 C9.741875 2.87625 8.48375 2.7525 7.1875 2.625 C6.12595703 2.52058594 6.12595703 2.52058594 5.04296875 2.4140625 C3 2 3 2 0 0 Z " fill="#253C3D" transform="translate(319,306)"/>
<path d="M0 0 C2.64 1.65 5.28 3.3 8 5 C7.01 5.66 6.02 6.32 5 7 C4.67 6.01 4.34 5.02 4 4 C1.03 3.505 1.03 3.505 -2 3 C-1.34 2.67 -0.68 2.34 0 2 C0 1.34 0 0.68 0 0 Z " fill="#CBBF85" transform="translate(116,299)"/>
<path d="M0 0 C1.13757948 4.55031791 0.4283779 6.63084406 -1 11 C-1.66 10.67 -2.32 10.34 -3 10 C-2.01 6.7 -1.02 3.4 0 0 Z " fill="#BFB987" transform="translate(132,235)"/>
<path d="M0 0 C1.32 0.33 2.64 0.66 4 1 C4 3.31 4 5.62 4 8 C1.84622436 5.37801226 0.59927826 3.35595828 0 0 Z " fill="#D6C98C" transform="translate(377,217)"/>
<path d="M0 0 C0.66 0 1.32 0 2 0 C0.8905928 3.48670834 -0.26337666 6.77484237 -2 10 C-2.66 10 -3.32 10 -4 10 C-3.52449439 8.51965236 -3.04448784 7.04074979 -2.5625 5.5625 C-2.29566406 4.73878906 -2.02882813 3.91507813 -1.75390625 3.06640625 C-1 1 -1 1 0 0 Z " fill="#C5BE8E" transform="translate(320,196)"/>
<path d="M0 0 C3.37462715 0.54723683 5.08235 1.0549 8 3 C8 3.66 8 4.32 8 5 C4.62496331 3.8141763 2.35277269 2.72426311 0 0 Z " fill="#EFDFB1" transform="translate(231,489)"/>
<path d="M0 0 C-2.68841859 2.25245881 -4.64641875 3.88213958 -8 5 C-8.33 4.01 -8.66 3.02 -9 2 C-5.86501708 0.14223235 -3.62528568 -0.20140476 0 0 Z " fill="#F0DFB1" transform="translate(297,473)"/>
<path d="M0 0 C2 2 2 2 2 5 C2.66 5.33 3.32 5.66 4 6 C1 6 1 6 -0.6875 4.625 C-2 3 -2 3 -2 1 C-1.34 0.67 -0.68 0.34 0 0 Z " fill="#1F3540" transform="translate(306,293)"/>
<path d="M0 0 C1.32 0.33 2.64 0.66 4 1 C4 3.64 4 6.28 4 9 C2.00902154 6.01353231 1.05875074 3.40312738 0 0 Z " fill="#D0C48B" transform="translate(170,180)"/>
<path d="M0 0 C1.32 0.33 2.64 0.66 4 1 C4.33 3.31 4.66 5.62 5 8 C4.34 8 3.68 8 3 8 C0 2.25 0 2.25 0 0 Z " fill="#D5CC98" transform="translate(167,172)"/>
<path d="M0 0 C0 0.99 0 1.98 0 3 C-2.64 3.66 -5.28 4.32 -8 5 C-3.16129032 0 -3.16129032 0 0 0 Z " fill="#EDE0A7" transform="translate(239,6)"/>
<path d="M0 0 C5.53846154 0.61538462 5.53846154 0.61538462 7.875 2.5625 C8.431875 3.2740625 8.431875 3.2740625 9 4 C8.01 4.495 8.01 4.495 7 5 C4.5249829 3.88568235 2.32116581 2.41849022 0 1 C0 0.67 0 0.34 0 0 Z " fill="#EEE0B5" transform="translate(41,379)"/>
<path d="M0 0 C-3.96 1.98 -3.96 1.98 -8 4 C-8.66 3.34 -9.32 2.68 -10 2 C-4.5 -1.125 -4.5 -1.125 0 0 Z " fill="#2D3C42" transform="translate(238,313)"/>
<path d="M0 0 C-1.125 1.5625 -1.125 1.5625 -3 3 C-6.1875 2.6875 -6.1875 2.6875 -9 2 C-5.5647952 -0.29013653 -4.014669 -0.17842973 0 0 Z " fill="#C0B386" transform="translate(177,308)"/>
<path d="M0 0 C2.31 0.33 4.62 0.66 7 1 C7 2.32 7 3.64 7 5 C3.34683329 3.75023244 2.21934164 3.32901247 0 0 Z " fill="#283C44" transform="translate(310,300)"/>
<path d="M0 0 C0 0.66 0 1.32 0 2 C-0.99 2 -1.98 2 -3 2 C-2.67 2.99 -2.34 3.98 -2 5 C-3.65 4.67 -5.3 4.34 -7 4 C-3.17391304 0 -3.17391304 0 0 0 Z " fill="#EDDAA4" transform="translate(205,26)"/>
</svg>
